<svg width="40" height="40" viewBox="0 0 40 40" fill="none" xmlns="http://www.w3.org/2000/svg">
<path fill-rule="evenodd" clip-rule="evenodd" d="M3.33203 20.0002C3.33203 10.7953 10.7938 3.3335 19.9987 3.3335C29.2036 3.3335 36.6654 10.7953 36.6654 20.0002C36.6654 29.205 29.2036 36.6668 19.9987 36.6668C10.7938 36.6668 3.33203 29.205 3.33203 20.0002ZM16.3495 16.35C17.3111 15.3884 18.6153 14.8481 19.9752 14.8481C21.3351 14.8481 22.6393 15.3884 23.6009 16.35C24.5625 17.3116 25.1027 18.6158 25.1027 19.9757C25.1027 21.3356 24.5625 22.6398 23.6009 23.6014C22.6393 24.563 21.3351 25.1032 19.9752 25.1032C18.6153 25.1032 17.3111 24.563 16.3495 23.6014C15.3879 22.6398 14.8477 21.3356 14.8477 19.9757C14.8477 18.6158 15.3879 17.3116 16.3495 16.35ZM17.6197 22.33C18.2444 22.9547 19.0917 23.3057 19.9752 23.3057C20.8586 23.3057 21.7059 22.9547 22.3306 22.33C22.9553 21.7053 23.3063 20.858 23.3063 19.9746C23.3063 19.0911 22.9553 18.2438 22.3306 17.6191C21.7059 16.9944 20.8586 16.6434 19.9752 16.6434C19.0917 16.6434 18.2444 16.9944 17.6197 17.6191C16.995 18.2438 16.6441 19.0911 16.6441 19.9746C16.6441 20.858 16.995 21.7053 17.6197 22.33ZM25.3067 15.8551C25.9669 15.8551 26.5021 15.3199 26.5021 14.6597C26.5021 13.9995 25.9669 13.4644 25.3067 13.4644C24.6465 13.4644 24.1113 13.9995 24.1113 14.6597C24.1113 15.3199 24.6465 15.8551 25.3067 15.8551ZM28.2873 11.6767C28.79 12.1793 29.1823 12.7813 29.439 13.4442C29.735 14.2307 29.893 15.0624 29.9059 15.9026C29.968 16.9639 29.968 17.3076 29.968 20.0166C29.968 22.7257 29.9536 23.0639 29.9059 24.1306C29.8892 24.9601 29.7329 25.7784 29.4412 26.5547C29.1842 27.2175 28.7918 27.8195 28.2891 28.3222C27.7864 28.8249 27.1844 29.2173 26.5215 29.4744C25.7456 29.7651 24.926 29.9222 24.0975 29.939C23.0385 30 22.6914 30 19.9835 30C17.2756 30 16.9374 29.9856 15.8695 29.939C15.0394 29.9117 14.22 29.743 13.4466 29.44C12.7835 29.1834 12.1813 28.7913 11.6784 28.2887C11.1754 27.7862 10.7829 27.1843 10.5257 26.5214C10.2341 25.7441 10.0778 24.9257 10.0611 24.0963C9.99902 23.035 9.99902 22.6902 9.99902 19.9823C9.99902 17.2732 10.0134 16.935 10.0611 15.8683C10.0773 15.0397 10.2344 14.22 10.5257 13.4442C10.7822 12.7811 11.1743 12.179 11.6771 11.6763C12.18 11.1737 12.7823 10.7818 13.4455 10.5256C14.2203 10.2335 15.0394 10.076 15.8673 10.0599C16.9263 10 17.2734 10 19.9813 10C22.6892 10 23.0274 10.0133 24.0953 10.0599C24.9238 10.0769 25.7435 10.2344 26.5193 10.5256C27.1823 10.7821 27.7845 11.1741 28.2873 11.6767ZM27.7435 25.886C27.9646 25.2864 28.0813 24.6533 28.0884 24.0142L28.1006 24.0153C28.1483 22.9552 28.1483 22.6647 28.1483 19.9634C28.1483 17.261 28.1361 16.965 28.0884 15.9104C28.0781 15.2785 27.9615 14.6529 27.7435 14.0597C27.5769 13.6284 27.3219 13.2367 26.995 12.9098C26.6681 12.5828 26.2764 12.3279 25.8451 12.1612C25.2523 11.9406 24.6258 11.824 23.9933 11.8164C22.921 11.7554 22.6437 11.7554 19.9414 11.7554C17.239 11.7554 16.9429 11.7687 15.8884 11.8164C15.2563 11.8252 14.6304 11.9418 14.0376 12.1612C13.1627 12.4961 12.4696 13.1847 12.1314 14.0597C11.9104 14.6589 11.7937 15.2917 11.7866 15.9304C11.7278 17.0049 11.7278 17.281 11.7278 19.9834C11.7278 22.6846 11.7389 22.9818 11.7866 24.0353C11.7969 24.6672 11.9135 25.2928 12.1314 25.886C12.2987 26.318 12.5548 26.7102 12.8831 27.037C13.2115 27.3638 13.6048 27.6181 14.0376 27.7833C14.6301 28.0038 15.2562 28.1205 15.8884 28.1282C16.9618 28.1892 17.2379 28.1892 19.9414 28.1892C22.6426 28.1892 22.9398 28.177 23.9933 28.1282C24.6257 28.12 25.2521 28.0034 25.8451 27.7833C26.2764 27.617 26.6682 27.3623 26.9951 27.0356C27.3221 26.7088 27.577 26.3172 27.7435 25.886Z" fill="#010101"/>
</svg>
