<svg width="106" height="32" viewBox="0 0 106 32" fill="none" xmlns="http://www.w3.org/2000/svg">
<path fill-rule="evenodd" clip-rule="evenodd" d="M0 32H46.9529C46.9615 31.9859 46.97 31.9717 46.9785 31.9574C47.0008 31.92 47.0232 31.8823 47.0481 31.8465C48.8573 29.2403 50.6669 26.6346 52.4765 24.0289C54.286 21.4232 56.0956 18.8175 57.9048 16.2113C57.9685 16.1198 58.0001 16.0744 58 16.0291C57.9999 15.9844 57.9691 15.9399 57.9081 15.8514C57.1679 14.7808 56.4277 13.7102 55.6876 12.6397C52.8095 8.47706 49.9319 4.315 47.0564 0.151894C46.9792 0.0396244 46.9004 0 46.7658 0C31.2434 0.00330203 15.7194 0.00330203 0.197048 0.00330203H0.197005H0V32ZM34.0294 8.75534C34.7156 8.57373 35.3608 8.50273 36.2243 8.50273C38.0943 8.51925 39.9034 9.18295 41.4204 10.5797C42.5991 11.6661 43.3215 13.0199 43.6104 14.5999C43.9322 16.3583 43.7007 18.0423 42.8372 19.6124C41.8127 21.4731 40.2498 22.6668 38.2108 23.2083C36.4558 23.6756 34.7156 23.5815 33.0361 22.8748C30.8477 21.9552 29.4359 20.3042 28.7726 18.0357C28.18 16.0066 28.395 14.0353 29.4556 12.1944C30.4898 10.4031 32.0446 9.28036 34.0294 8.75534ZM21.8298 13.6261C21.8014 13.6634 21.7723 13.7016 21.7264 13.7299C21.6069 13.6343 21.4902 13.5388 21.3745 13.444C21.2424 13.3358 21.1116 13.2287 20.9794 13.1239C20.4836 12.7425 19.9468 12.4388 19.3328 12.3034C18.6515 12.1531 17.9669 12.0986 17.2889 12.3067C16.3219 12.6022 15.6471 13.2461 15.2039 14.1426C14.8345 14.8872 14.7344 15.6797 14.8329 16.5019C14.91 17.1458 15.1152 17.7435 15.4912 18.2734C16.0691 19.0857 16.8587 19.5579 17.8421 19.6818C18.7286 19.794 19.5872 19.6818 20.3999 19.2888C20.6774 19.1542 20.6774 19.1518 20.6773 18.8419V18.8364C20.6773 18.761 20.6775 18.6857 20.6777 18.6105C20.6781 18.4603 20.6784 18.3103 20.6773 18.1595C20.6757 18.043 20.6842 17.992 20.6628 17.9701C20.6421 17.9488 20.5934 17.9548 20.4803 17.9548C20.1935 17.9548 19.9068 17.955 19.6202 17.9552C19.0474 17.9555 18.4751 17.9559 17.9029 17.9548C17.7877 17.954 17.738 17.9601 17.717 17.9384C17.6959 17.9165 17.7042 17.8662 17.7042 17.7517V14.6313C17.7042 14.6187 17.7046 14.6059 17.7049 14.5931C17.7057 14.5672 17.7064 14.5411 17.7042 14.5157C17.6993 14.4546 17.7206 14.4233 17.7863 14.4282C17.8115 14.4304 17.8375 14.4297 17.8632 14.429C17.876 14.4286 17.8887 14.4282 17.9012 14.4282H24.3022H24.4172C24.4598 14.4282 24.4943 14.4365 24.4894 14.491C24.4864 14.5247 24.5072 14.5469 24.5282 14.5694C24.5535 14.5964 24.5792 14.6239 24.5649 14.6726C24.5525 14.7136 24.5556 14.76 24.5588 14.8066C24.5602 14.8276 24.5616 14.8485 24.5616 14.8691C24.5616 15.2638 24.5616 15.6585 24.5615 16.0533C24.5612 17.6337 24.561 19.2146 24.5649 20.7946C24.5649 20.9233 24.5255 21.0042 24.4287 21.0851C23.2154 22.1022 21.8512 22.8121 20.308 23.1621C19.3952 23.3701 18.4709 23.4279 17.5368 23.352C16.4335 23.2628 15.3861 22.9772 14.4159 22.4357C12.6379 21.4417 11.5182 19.9327 11.0027 17.9631C10.7762 17.093 10.7072 16.2064 10.7795 15.3115C11.0487 11.9946 13.3586 9.40419 16.4516 8.68435C17.3348 8.47797 18.2263 8.44825 19.1259 8.50934C19.8154 8.55557 20.4935 8.66453 21.1567 8.86431C22.1516 9.16314 23.0283 9.67826 23.8245 10.3387C23.9164 10.4163 24.0084 10.4939 24.1003 10.5731C24.2136 10.6722 24.2185 10.7283 24.1184 10.8505L22.6096 12.6798C22.5049 12.8063 22.4007 12.9329 22.2967 13.0593C22.1495 13.238 22.0025 13.4165 21.8545 13.5945C21.846 13.6048 21.838 13.6154 21.8298 13.6261ZM39.4115 15.4073C39.0422 13.7744 37.6875 12.5966 35.6154 12.6015C34.5957 12.6245 33.5434 13.2126 32.8832 14.4397C32.4354 15.2726 32.3309 16.1711 32.5008 17.0992C32.6348 17.8319 32.9502 18.4791 33.4731 19.013C34.2885 19.8442 35.287 20.1695 36.4309 20.038C37.614 19.9017 38.4948 19.2906 39.0569 18.2409C39.5357 17.3473 39.6337 16.3912 39.4115 15.4073Z" fill="#17161C"/>
<path d="M59 0C74.6667 0 90.3333 0 106 0C106 10.6667 106 21.3333 106 32C105.919 31.9736 105.839 31.9884 105.756 31.9884C90.2576 31.9884 74.7572 31.9884 59.2584 31.9868C58.9753 31.9868 59.0148 32.0281 59.0148 31.7441C59.0148 21.2392 59.0148 10.7344 59.0132 0.227864C59.0132 0.151909 59.028 0.0743034 59 0ZM86.68 9.10795C84.7332 9.10795 82.7863 9.10795 80.8379 9.10795C80.7935 9.10795 80.7507 9.1096 80.7062 9.10795C80.6404 9.10464 80.619 9.13602 80.6223 9.19711C80.6239 9.22518 80.6223 9.2516 80.6223 9.27967C80.6223 10.3975 80.6223 11.5137 80.6223 12.6316C80.6223 12.8248 80.6091 12.8066 80.8017 12.8066C82.0244 12.8066 83.2471 12.8066 84.4715 12.8066C84.7085 12.8066 84.7085 12.8066 84.7085 13.0378C84.7085 16.4821 84.7085 19.9282 84.7085 23.3725C84.7085 23.5624 84.6854 23.5476 84.8846 23.5492C84.901 23.5492 84.9175 23.5492 84.9339 23.5492C86.0908 23.5492 87.2477 23.5492 88.4063 23.5492C88.6251 23.5492 88.6251 23.5492 88.6251 23.3346C88.6251 19.8902 88.6251 16.4442 88.6251 12.9998C88.6251 12.7901 88.5988 12.8083 88.821 12.8083C90.0667 12.8083 91.3109 12.8083 92.5566 12.8083C92.7195 12.8083 92.7195 12.8066 92.7195 12.6481C92.7195 12.6316 92.7195 12.6151 92.7195 12.5986C92.7195 11.5038 92.7195 10.4091 92.7195 9.31269C92.7195 9.08318 92.7442 9.1096 92.5188 9.1096C90.5736 9.10795 88.6268 9.10795 86.68 9.10795ZM73.0144 16.3203C73.0144 18.6485 73.0144 20.975 73.0144 23.3032C73.0144 23.3478 73.0177 23.3907 73.0144 23.4353C73.0078 23.5146 73.0292 23.5641 73.1214 23.5509C73.1543 23.5459 73.1872 23.5509 73.2201 23.5509C74.3886 23.5509 75.557 23.5509 76.7237 23.5509C76.9657 23.5509 76.9311 23.5789 76.9311 23.3395C76.9311 18.6683 76.9311 13.9955 76.9311 9.32425C76.9311 9.29123 76.9278 9.2582 76.9311 9.22518C76.9393 9.14262 76.9113 9.09969 76.8225 9.1096C76.7961 9.1129 76.7682 9.1096 76.7402 9.1096C75.5619 9.1096 74.382 9.1096 73.2037 9.1096C72.9881 9.1096 73.0144 9.08318 73.0144 9.30444C73.0128 11.6425 73.0144 13.9806 73.0144 16.3203Z" fill="#17161C"/>
</svg>
