<svg width="83" height="172" viewBox="0 0 83 172" fill="none" xmlns="http://www.w3.org/2000/svg">
<rect x="0.471591" y="0.46915" width="82.0568" height="171.057" rx="13.6761" stroke="#090909" stroke-width="0.943182"/>
<rect x="8.01847" y="8.92813" width="18.8636" height="28.1934" rx="8.01705" stroke="#090909" stroke-width="0.943182"/>
<g clip-path="url(#clip0_711_69)">
<mask id="path-3-outside-1_711_69" maskUnits="userSpaceOnUse" x="10.8105" y="52.5444" width="47.9629" height="74.745" fill="black">
<rect fill="white" x="10.8105" y="52.5444" width="47.9629" height="74.745"/>
<path fill-rule="evenodd" clip-rule="evenodd" d="M23.3659 75.6721C23.3453 75.6076 23.3265 75.5419 23.3095 75.4748C21.3279 67.6516 26.3883 57.4875 26.3883 57.4875C26.3883 57.4875 35.9252 64.016 37.8921 71.7811C37.922 71.899 37.9449 72.0162 37.9612 72.1324L45.1504 100.514C45.1545 100.529 45.1584 100.543 45.162 100.557C45.1809 100.631 45.1924 100.707 45.1969 100.784L45.4419 101.751L45.4406 101.751C45.6081 102.491 45.0643 103.341 44.0321 104.14C44.2171 104.601 44.4059 105.119 44.599 105.699C46.2242 110.585 46.2312 118.514 46.2312 118.514C45.647 116.757 44.9576 115.477 44.2364 114.391C44.7572 118.295 44.7605 121.998 44.7605 121.998C43.8082 119.135 42.5761 117.535 41.3832 115.986L41.3831 115.986L41.383 115.986L41.383 115.986L41.3829 115.986L41.3828 115.986L41.3827 115.986L41.3827 115.986L41.382 115.985C41.2329 115.791 41.0844 115.598 40.9371 115.404C41.0581 117.381 41.0593 118.772 41.0593 118.772C40.1071 115.91 38.8749 114.31 37.682 112.761C36.5626 111.307 35.4777 109.899 34.691 107.533C34.6283 107.345 34.5692 107.162 34.5137 106.985C32.5354 106.929 31.1157 106.378 30.8706 105.41C30.8667 105.395 30.8631 105.379 30.8598 105.363L29.8464 101.363L22.6774 103.179C20.7279 95.4823 25.594 85.5203 25.7522 85.1993L23.6344 76.8384L23.6548 76.8332L23.361 75.6733L23.3659 75.6721ZM44.4344 97.6674L51.609 95.8501C49.6274 88.0269 40.3386 81.4974 40.3386 81.4974L44.4344 97.6674Z"/>
</mask>
<path fill-rule="evenodd" clip-rule="evenodd" d="M23.3659 75.6721C23.3453 75.6076 23.3265 75.5419 23.3095 75.4748C21.3279 67.6516 26.3883 57.4875 26.3883 57.4875C26.3883 57.4875 35.9252 64.016 37.8921 71.7811C37.922 71.899 37.9449 72.0162 37.9612 72.1324L45.1504 100.514C45.1545 100.529 45.1584 100.543 45.162 100.557C45.1809 100.631 45.1924 100.707 45.1969 100.784L45.4419 101.751L45.4406 101.751C45.6081 102.491 45.0643 103.341 44.0321 104.14C44.2171 104.601 44.4059 105.119 44.599 105.699C46.2242 110.585 46.2312 118.514 46.2312 118.514C45.647 116.757 44.9576 115.477 44.2364 114.391C44.7572 118.295 44.7605 121.998 44.7605 121.998C43.8082 119.135 42.5761 117.535 41.3832 115.986L41.3831 115.986L41.383 115.986L41.383 115.986L41.3829 115.986L41.3828 115.986L41.3827 115.986L41.3827 115.986L41.382 115.985C41.2329 115.791 41.0844 115.598 40.9371 115.404C41.0581 117.381 41.0593 118.772 41.0593 118.772C40.1071 115.91 38.8749 114.31 37.682 112.761C36.5626 111.307 35.4777 109.899 34.691 107.533C34.6283 107.345 34.5692 107.162 34.5137 106.985C32.5354 106.929 31.1157 106.378 30.8706 105.41C30.8667 105.395 30.8631 105.379 30.8598 105.363L29.8464 101.363L22.6774 103.179C20.7279 95.4823 25.594 85.5203 25.7522 85.1993L23.6344 76.8384L23.6548 76.8332L23.361 75.6733L23.3659 75.6721ZM44.4344 97.6674L51.609 95.8501C49.6274 88.0269 40.3386 81.4974 40.3386 81.4974L44.4344 97.6674Z" fill="#8C8C8C"/>
<path d="M23.3095 75.4748L23.673 75.3827L23.673 75.3827L23.3095 75.4748ZM23.3659 75.6721L23.458 76.0356L23.8445 75.9377L23.7231 75.5579L23.3659 75.6721ZM26.3883 57.4875L26.6001 57.1781L26.2446 56.9347L26.0526 57.3204L26.3883 57.4875ZM37.9612 72.1324L37.5899 72.1845L37.5927 72.2047L37.5977 72.2244L37.9612 72.1324ZM45.1504 100.514L44.7866 100.607L44.7905 100.62L45.1504 100.514ZM45.1969 100.784L44.8226 100.806L44.8247 100.841L44.8334 100.876L45.1969 100.784ZM45.4419 101.751L45.534 102.115L45.8975 102.022L45.8055 101.659L45.4419 101.751ZM45.4406 101.751L45.3486 101.388L44.9942 101.478L45.0749 101.834L45.4406 101.751ZM44.0321 104.14L43.8025 103.844L43.5786 104.017L43.6841 104.28L44.0321 104.14ZM44.599 105.699L44.2432 105.817L44.599 105.699ZM46.2312 118.514L45.8753 118.632L46.6062 118.513L46.2312 118.514ZM44.2364 114.391L44.5488 114.184L43.8647 114.441L44.2364 114.391ZM44.7605 121.998L44.4046 122.116L45.1355 121.998L44.7605 121.998ZM41.3832 115.986L41.0846 116.213L41.0861 116.215L41.3832 115.986ZM41.3831 115.986L41.6817 115.759L41.3831 115.986ZM41.383 115.986L41.0845 116.213L41.383 115.986ZM41.383 115.986L41.6815 115.759L41.383 115.986ZM41.3829 115.986L41.0843 116.213L41.3829 115.986ZM41.3828 115.986L41.6814 115.759L41.3828 115.986ZM41.3827 115.986L41.6813 115.759L41.6765 115.753L41.3827 115.986ZM41.3827 115.986L41.0855 116.215L41.0889 116.219L41.3827 115.986ZM41.382 115.985L41.0849 116.214L41.0849 116.214L41.382 115.985ZM40.9371 115.404L41.236 115.178L40.4871 114.189L40.5628 115.427L40.9371 115.404ZM41.0593 118.772L40.7035 118.891L41.4343 118.772L41.0593 118.772ZM37.682 112.761L37.9791 112.532L37.682 112.761ZM34.691 107.533L34.3351 107.652L34.691 107.533ZM34.5137 106.985L34.8715 106.872L34.7916 106.617L34.5242 106.61L34.5137 106.985ZM30.8598 105.363L31.2267 105.286L31.2251 105.279L31.2233 105.271L30.8598 105.363ZM29.8464 101.363L30.2099 101.271L30.1179 100.907L29.7543 100.999L29.8464 101.363ZM22.6774 103.179L22.3139 103.271L22.4059 103.634L22.7695 103.542L22.6774 103.179ZM25.7522 85.1993L26.0886 85.3652L26.1497 85.2412L26.1158 85.1073L25.7522 85.1993ZM23.6344 76.8384L23.5423 76.4748L23.1788 76.5669L23.2709 76.9304L23.6344 76.8384ZM23.6548 76.8332L23.7468 77.1967L24.1104 77.1047L24.0183 76.7411L23.6548 76.8332ZM23.361 75.6733L23.2689 75.3098L22.9054 75.4019L22.9975 75.7654L23.361 75.6733ZM51.609 95.8501L51.7011 96.2136L52.0646 96.1215L51.9725 95.758L51.609 95.8501ZM44.4344 97.6674L44.0709 97.7595L44.163 98.123L44.5265 98.0309L44.4344 97.6674ZM40.3386 81.4974L40.5542 81.1906L39.7267 80.6089L39.975 81.5895L40.3386 81.4974ZM22.946 75.5669C22.9648 75.6413 22.9858 75.7144 23.0087 75.7863L23.7231 75.5579C23.7049 75.5008 23.6881 75.4424 23.673 75.3827L22.946 75.5669ZM26.3883 57.4875C26.0526 57.3204 26.0525 57.3205 26.0525 57.3206C26.0524 57.3207 26.0523 57.3209 26.0522 57.3211C26.052 57.3216 26.0517 57.3221 26.0514 57.3228C26.0507 57.3243 26.0496 57.3263 26.0483 57.329C26.0457 57.3343 26.0419 57.3421 26.0369 57.3523C26.027 57.3726 26.0125 57.4025 25.9938 57.4415C25.9563 57.5197 25.902 57.6346 25.8339 57.7832C25.6976 58.0803 25.5057 58.5124 25.2819 59.0549C24.8345 60.1395 24.2589 61.6677 23.7455 63.4433C22.7225 66.9816 21.9303 71.5571 22.946 75.5669L23.673 75.3827C22.7071 71.5693 23.4542 67.1512 24.466 63.6516C24.9701 61.9083 25.5357 60.4065 25.9752 59.3409C26.1949 58.8083 26.3829 58.3851 26.5156 58.0959C26.5819 57.9513 26.6344 57.8402 26.6701 57.7656C26.688 57.7283 26.7017 57.7002 26.7108 57.6815C26.7153 57.6722 26.7187 57.6653 26.7209 57.6608C26.7221 57.6586 26.7229 57.6569 26.7234 57.6559C26.7236 57.6554 26.7238 57.655 26.7239 57.6548C26.724 57.6547 26.724 57.6547 26.724 57.6546C26.724 57.6546 26.724 57.6546 26.3883 57.4875ZM38.2556 71.689C37.2465 67.705 34.31 64.072 31.6664 61.4558C30.3394 60.1426 29.075 59.0748 28.1422 58.3351C27.6756 57.9651 27.2915 57.6768 27.0234 57.4806C26.8894 57.3825 26.7843 57.3073 26.7123 57.2565C26.6764 57.2311 26.6487 57.2117 26.6298 57.1986C26.6204 57.192 26.6131 57.187 26.6082 57.1836C26.6057 57.1819 26.6038 57.1806 26.6024 57.1796C26.6018 57.1792 26.6012 57.1788 26.6008 57.1786C26.6006 57.1784 26.6005 57.1783 26.6004 57.1782C26.6002 57.1781 26.6001 57.1781 26.3883 57.4875C26.1765 57.7969 26.1764 57.7969 26.1764 57.7969C26.1765 57.797 26.1765 57.797 26.1766 57.7971C26.1768 57.7972 26.1772 57.7974 26.1777 57.7978C26.1786 57.7984 26.1802 57.7995 26.1823 57.8009C26.1865 57.8038 26.193 57.8083 26.2016 57.8144C26.219 57.8264 26.2451 57.8447 26.2794 57.8689C26.3482 57.9175 26.4499 57.9902 26.5804 58.0858C26.8416 58.2769 27.2179 58.5594 27.6762 58.9227C28.593 59.6498 29.8358 60.6994 31.1388 61.9889C33.7554 64.5783 36.5708 68.0921 37.5286 71.8731L38.2556 71.689ZM38.3326 72.0802C38.3144 71.9504 38.2888 71.8199 38.2556 71.689L37.5286 71.8731C37.5552 71.9782 37.5755 72.082 37.5899 72.1845L38.3326 72.0802ZM45.5139 100.422L38.3248 72.0403L37.5977 72.2244L44.7869 100.607L45.5139 100.422ZM45.5255 100.465C45.5208 100.446 45.5157 100.428 45.5103 100.409L44.7905 100.62C44.7933 100.629 44.796 100.639 44.7985 100.649L45.5255 100.465ZM45.5713 100.762C45.5654 100.662 45.5503 100.563 45.5255 100.465L44.7985 100.649C44.8114 100.7 44.8194 100.752 44.8226 100.806L45.5713 100.762ZM45.8055 101.659L45.5605 100.692L44.8334 100.876L45.0784 101.843L45.8055 101.659ZM45.5327 102.115L45.534 102.115L45.3499 101.388L45.3486 101.388L45.5327 102.115ZM44.2617 104.437C44.8001 104.02 45.2316 103.575 45.5074 103.117C45.784 102.658 45.9179 102.161 45.8064 101.669L45.0749 101.834C45.1308 102.081 45.0766 102.379 44.8651 102.73C44.6528 103.082 44.2963 103.461 43.8025 103.844L44.2617 104.437ZM44.9548 105.581C44.7597 104.994 44.5683 104.469 44.3801 104L43.6841 104.28C43.8658 104.732 44.052 105.243 44.2432 105.817L44.9548 105.581ZM46.2312 118.514C46.6062 118.513 46.6062 118.513 46.6062 118.513C46.6062 118.513 46.6062 118.513 46.6062 118.513C46.6062 118.513 46.6062 118.512 46.6062 118.512C46.6062 118.511 46.6062 118.509 46.6062 118.507C46.6062 118.503 46.6061 118.497 46.6061 118.489C46.606 118.474 46.6059 118.451 46.6057 118.421C46.6052 118.361 46.6044 118.272 46.6027 118.158C46.5993 117.93 46.5926 117.599 46.5795 117.187C46.5533 116.363 46.5014 115.213 46.3984 113.909C46.193 111.31 45.7824 108.069 44.9548 105.581L44.2432 105.817C45.0408 108.216 45.4463 111.382 45.6507 113.968C45.7526 115.258 45.804 116.395 45.8299 117.21C45.8428 117.618 45.8494 117.945 45.8527 118.169C45.8544 118.281 45.8553 118.368 45.8557 118.426C45.8559 118.455 45.856 118.478 45.8561 118.492C45.8561 118.5 45.8562 118.505 45.8562 118.509C45.8562 118.511 45.8562 118.512 45.8562 118.513C45.8562 118.513 45.8562 118.514 45.8562 118.514C45.8562 118.514 45.8562 118.514 45.8562 118.514C45.8562 118.514 45.8562 118.514 46.2312 118.514ZM43.9241 114.599C44.6289 115.66 45.3028 116.911 45.8753 118.632L46.587 118.395C45.9913 116.604 45.2862 115.294 44.5488 114.184L43.9241 114.599ZM44.7605 121.998C45.1355 121.998 45.1355 121.998 45.1355 121.998C45.1355 121.998 45.1355 121.998 45.1355 121.997C45.1355 121.997 45.1355 121.997 45.1355 121.997C45.1355 121.996 45.1355 121.996 45.1355 121.995C45.1355 121.993 45.1355 121.99 45.1354 121.986C45.1354 121.979 45.1354 121.968 45.1353 121.954C45.1352 121.925 45.1349 121.883 45.1343 121.828C45.1332 121.717 45.131 121.556 45.1267 121.351C45.1182 120.94 45.1015 120.352 45.0683 119.641C45.0021 118.221 44.8704 116.308 44.6081 114.342L43.8647 114.441C44.1232 116.379 44.2535 118.269 44.3192 119.676C44.3519 120.379 44.3685 120.961 44.3769 121.366C44.3811 121.569 44.3832 121.728 44.3843 121.835C44.3849 121.889 44.3852 121.93 44.3853 121.958C44.3854 121.971 44.3854 121.982 44.3855 121.988C44.3855 121.992 44.3855 121.994 44.3855 121.996C44.3855 121.997 44.3855 121.998 44.3855 121.998C44.3855 121.998 44.3855 121.998 44.3855 121.998C44.3855 121.998 44.3855 121.998 44.3855 121.998C44.3855 121.998 44.3855 121.998 44.7605 121.998ZM41.0861 116.215C42.2735 117.757 43.4731 119.316 44.4046 122.116L45.1163 121.88C44.1434 118.955 42.8787 117.314 41.6803 115.758L41.0861 116.215ZM41.0846 116.213L41.0846 116.213L41.6817 115.759L41.6817 115.759L41.0846 116.213ZM41.0845 116.213L41.0846 116.213L41.6817 115.759L41.6816 115.759L41.0845 116.213ZM41.0844 116.213L41.0845 116.213L41.6816 115.759L41.6815 115.759L41.0844 116.213ZM41.0843 116.213L41.0844 116.213L41.6815 115.759L41.6814 115.759L41.0843 116.213ZM41.0843 116.213L41.0843 116.213L41.6814 115.759L41.6814 115.759L41.0843 116.213ZM41.0842 116.213L41.0843 116.213L41.6814 115.759L41.6813 115.759L41.0842 116.213ZM41.0889 116.219L41.089 116.219L41.6765 115.753L41.6764 115.753L41.0889 116.219ZM41.0849 116.214L41.0856 116.215L41.6797 115.757L41.6791 115.756L41.0849 116.214ZM40.6382 115.63C40.7865 115.826 40.9359 116.02 41.0849 116.214L41.6791 115.756C41.5298 115.562 41.3822 115.371 41.236 115.178L40.6382 115.63ZM41.0593 118.772C41.4343 118.772 41.4343 118.772 41.4343 118.772C41.4343 118.772 41.4343 118.772 41.4343 118.772C41.4343 118.772 41.4343 118.772 41.4343 118.772C41.4343 118.772 41.4343 118.771 41.4343 118.771C41.4343 118.77 41.4343 118.769 41.4343 118.768C41.4343 118.765 41.4343 118.761 41.4343 118.755C41.4342 118.744 41.4341 118.728 41.434 118.706C41.4337 118.664 41.4332 118.601 41.4322 118.519C41.4302 118.357 41.4262 118.119 41.4184 117.82C41.4029 117.221 41.3722 116.375 41.3114 115.381L40.5628 115.427C40.623 116.41 40.6534 117.248 40.6687 117.839C40.6764 118.135 40.6803 118.369 40.6823 118.529C40.6832 118.609 40.6838 118.67 40.684 118.711C40.6842 118.732 40.6842 118.747 40.6843 118.758C40.6843 118.763 40.6843 118.767 40.6843 118.769C40.6843 118.771 40.6843 118.771 40.6843 118.772C40.6843 118.772 40.6843 118.773 40.6843 118.773C40.6843 118.773 40.6843 118.773 40.6843 118.773C40.6843 118.773 40.6843 118.773 40.6843 118.773C40.6843 118.773 40.6843 118.773 41.0593 118.772ZM37.3849 112.99C38.5723 114.531 39.7719 116.09 40.7035 118.891L41.4151 118.654C40.4422 115.729 39.1776 114.088 37.9791 112.532L37.3849 112.99ZM34.3351 107.652C35.1433 110.081 36.2626 111.532 37.3849 112.99L37.9791 112.532C36.8626 111.082 35.8122 109.716 35.0468 107.415L34.3351 107.652ZM34.1558 107.097C34.2121 107.276 34.2718 107.461 34.3351 107.652L35.0468 107.415C34.9848 107.228 34.9264 107.048 34.8715 106.872L34.1558 107.097ZM30.5071 105.502C30.6709 106.149 31.2123 106.598 31.897 106.885C32.5874 107.175 33.4871 107.331 34.5032 107.359L34.5242 106.61C33.5619 106.583 32.7627 106.435 32.1874 106.194C31.6064 105.95 31.3154 105.639 31.2342 105.318L30.5071 105.502ZM30.4928 105.441C30.4972 105.461 30.5019 105.482 30.5071 105.502L31.2342 105.318C31.2314 105.307 31.2289 105.297 31.2267 105.286L30.4928 105.441ZM29.4829 101.455L30.4962 105.455L31.2233 105.271L30.2099 101.271L29.4829 101.455ZM22.7695 103.542L29.9385 101.726L29.7543 100.999L22.5853 102.815L22.7695 103.542ZM25.4159 85.0335C25.3315 85.2046 24.0649 87.7979 23.0637 91.3207C22.0654 94.8333 21.3146 99.3257 22.3139 103.271L23.0409 103.087C22.0907 99.3354 22.7982 94.9985 23.7851 91.5258C24.7691 88.0633 26.0147 85.515 26.0886 85.3652L25.4159 85.0335ZM23.2709 76.9304L25.3887 85.2914L26.1158 85.1073L23.9979 76.7463L23.2709 76.9304ZM23.5627 76.4697L23.5423 76.4748L23.7265 77.2019L23.7468 77.1967L23.5627 76.4697ZM22.9975 75.7654L23.2913 76.9253L24.0183 76.7411L23.7245 75.5812L22.9975 75.7654ZM23.2738 75.3086L23.2689 75.3098L23.4531 76.0368L23.458 76.0356L23.2738 75.3086ZM51.5169 95.4866L44.3423 97.3039L44.5265 98.0309L51.7011 96.2136L51.5169 95.4866ZM40.3386 81.4974C40.1229 81.8042 40.1229 81.8042 40.1229 81.8042C40.1229 81.8042 40.123 81.8042 40.1231 81.8043C40.1232 81.8044 40.1236 81.8047 40.124 81.805C40.125 81.8057 40.1265 81.8067 40.1285 81.8082C40.1326 81.8111 40.1389 81.8156 40.1473 81.8216C40.1642 81.8336 40.1896 81.8519 40.2231 81.8761C40.29 81.9247 40.3891 81.9974 40.5162 82.093C40.7706 82.2842 41.1374 82.5669 41.5841 82.9307C42.478 83.6586 43.6903 84.71 44.9635 86.0031C47.5193 88.599 50.2796 92.1287 51.2455 95.9422L51.9725 95.758C50.9569 91.7482 48.082 88.1016 45.4979 85.477C44.2012 84.1599 42.9675 83.09 42.0577 82.3491C41.6027 81.9785 41.2282 81.6899 40.9669 81.4935C40.8362 81.3953 40.7338 81.3201 40.6636 81.2692C40.6286 81.2437 40.6016 81.2244 40.5832 81.2112C40.574 81.2046 40.5669 81.1996 40.5621 81.1962C40.5596 81.1945 40.5578 81.1931 40.5565 81.1922C40.5558 81.1918 40.5553 81.1914 40.5549 81.1911C40.5547 81.191 40.5545 81.1909 40.5545 81.1908C40.5543 81.1907 40.5542 81.1906 40.3386 81.4974ZM44.7979 97.5753L40.7021 81.4053L39.975 81.5895L44.0709 97.7595L44.7979 97.5753Z" fill="#090909" mask="url(#path-3-outside-1_711_69)"/>
<ellipse cx="34.3046" cy="90.2712" rx="5.02592" ry="6.34306" transform="rotate(-14.214 34.3046 90.2712)" fill="white"/>
<ellipse cx="34.3031" cy="90.2714" rx="4.19405" ry="5.58051" transform="rotate(-14.214 34.3031 90.2714)" fill="white"/>
<ellipse cx="29.8648" cy="79.8531" rx="0.338995" ry="0.532706" transform="rotate(-4.5729 29.8648 79.8531)" fill="white"/>
<ellipse cx="0.338994" cy="0.532706" rx="0.338994" ry="0.532706" transform="matrix(-0.918374 0.395714 0.395714 0.918374 33.4238 78.275)" fill="white"/>
<path fill-rule="evenodd" clip-rule="evenodd" d="M31.1756 77.5895C30.5274 77.7587 29.3456 78.3581 29.8043 79.4019C30.1118 80.1016 29.9386 80.4112 29.7513 80.7458C29.5894 81.0352 29.417 81.3432 29.5359 81.9385C29.6438 82.4791 29.8828 82.8168 30.1214 83.1539C30.4493 83.6171 30.7763 84.0791 30.761 85.0648C30.74 86.4272 31.6475 90.0862 32.1176 91.7284L34.5337 91.1163L34.5335 91.1156L36.9171 90.5239C36.5646 88.8525 35.6979 85.2206 35.0422 84.0262C34.5801 83.1846 34.7492 82.6659 34.9177 82.1488C35.0481 81.7486 35.1783 81.3493 35.0152 80.802C34.8409 80.217 34.4654 80.002 34.1038 79.795C33.6901 79.5582 33.2946 79.3318 33.2394 78.5733C33.1568 77.4372 31.834 77.459 31.1813 77.6123L31.1756 77.5895Z" fill="white"/>
<ellipse cx="0.819266" cy="1.15399" rx="0.819266" ry="1.15399" transform="matrix(-0.77359 0.633687 0.633687 0.77359 30.2871 80.8866)" fill="white"/>
<ellipse cx="0.819266" cy="1.15399" rx="0.819266" ry="1.15399" transform="matrix(-0.946604 -0.322399 -0.322399 0.946604 35.3809 80.5753)" fill="white"/>
<path d="M36.2619 87.718C34.7222 88.8929 32.3931 89.1851 31.4397 89.0241L31.5916 89.5877C33.7824 90.0978 35.7018 88.9161 36.4118 88.277L36.2619 87.718Z" fill="white"/>
<path d="M36.4112 88.2584C34.5899 89.7489 32.5407 89.7298 31.5842 89.5799L31.7126 90.0192C33.9131 90.5039 35.8629 89.5308 36.5599 88.8833L36.4112 88.2584Z" fill="white"/>
<ellipse opacity="0.2" cx="33.2639" cy="78.7316" rx="0.151968" ry="0.238807" transform="rotate(10.1084 33.2639 78.7316)" fill="white"/>
<ellipse opacity="0.2" cx="29.7952" cy="79.6479" rx="0.151968" ry="0.238807" transform="rotate(10.1084 29.7952 79.6479)" fill="white"/>
<path d="M30.5047 80.5695C30.0235 78.9526 31.5247 78.29 31.5231 78.3119C33.2057 78.3429 33.4138 79.788 33.4097 80.0106C33.3984 80.623 34.4812 80.8931 34.3439 81.5625C34.2065 82.2319 34.5198 83.4773 34.5007 84.4052C34.4889 84.9738 34.3197 85.2223 34.1782 85.3101C34.2194 85.3002 34.2027 85.3066 34.1621 85.3194C34.1249 85.3396 34.0902 85.3488 34.0616 85.35C34.099 85.3388 34.1356 85.3278 34.1621 85.3194C34.1674 85.3165 34.1728 85.3134 34.1782 85.3101C34.124 85.323 33.9698 85.3639 33.6386 85.455C32.7044 85.7118 32.3394 84.4926 31.1785 83.2839C30.0177 82.0751 31.1063 82.5908 30.5047 80.5695Z" fill="white"/>
<path d="M33.4925 84.8555C32.7241 84.9763 32.0669 83.3673 31.8343 82.5477C32.2712 82.3311 33.2377 81.9398 33.6086 82.1072C34.0722 82.3165 34.4529 84.7043 33.4925 84.8555Z" fill="white"/>
<path d="M33.5901 84.6059C34.1002 84.4094 33.648 83.2983 33.3582 82.7673L32.3359 83.0211C32.5415 83.6312 33.08 84.8024 33.5901 84.6059Z" fill="white"/>
<path d="M33.4301 84.2081C33.5195 84.1035 33.0777 83.0026 32.8456 82.4653L32.627 82.545C32.8574 83.143 33.3407 84.3128 33.4301 84.2081Z" fill="white"/>
<path d="M31.3681 81.9888C31.6074 80.7817 31.1625 80.256 30.9101 80.144C31.4407 78.9045 32.5021 79.2872 32.9664 79.6335C32.6297 80.8398 32.8662 79.8829 33.6594 81.42C34.294 82.6496 33.5418 83.3078 33.0864 83.4833C32.4139 83.488 31.1289 83.1958 31.3681 81.9888Z" fill="white"/>
<path d="M33.8613 81.9499C32.252 80.6129 31.6608 82.0304 31.5664 82.9063C31.7577 83.208 32.3361 83.7456 33.1188 83.4814C33.9015 83.2173 33.9399 82.3503 33.8613 81.9499Z" fill="white"/>
<path d="M32.4668 82.077C32.419 81.941 32.3079 81.6951 32.2457 81.7996C32.1834 81.904 32.3671 82.028 32.4668 82.077Z" fill="white"/>
<path d="M32.7308 82.0117C32.6873 81.8743 32.6285 81.611 32.741 81.6571C32.8534 81.7032 32.781 81.9127 32.7308 82.0117Z" fill="white"/>
<path d="M31.7775 76.3592L32.1801 77.5261C31.6829 78.3163 30.4172 78.3859 29.8465 78.3219L29.4538 77.1269L31.7775 76.3592Z" fill="white"/>
<path d="M32.1795 77.5259C32.1889 78.2079 31.7061 79.2667 29.846 78.3123L32.1795 77.5259Z" fill="white"/>
<ellipse cx="30.6178" cy="76.7423" rx="1.22567" ry="0.211275" transform="rotate(-17.973 30.6178 76.7423)" fill="white"/>
<path d="M30.5909 76.9308C30.5974 76.932 30.6028 76.9327 30.6079 76.9342C30.65 76.9454 30.6808 76.9657 30.7037 77.0027C30.7135 77.0184 30.7215 77.0354 30.7301 77.0515C30.7377 77.0658 30.7452 77.0799 30.753 77.0941C30.7551 77.0977 30.7552 77.0996 30.751 77.102C30.742 77.1066 30.7358 77.1143 30.7356 77.125C30.7352 77.1345 30.7396 77.1417 30.7472 77.1464C30.7549 77.1513 30.7634 77.151 30.7718 77.1479C30.7759 77.1462 30.778 77.1435 30.7787 77.1387C30.7844 77.1022 30.782 77.0664 30.7728 77.0309C30.765 77.0016 30.7517 76.9744 30.7396 76.9472C30.7328 76.9316 30.7264 76.9155 30.719 76.9001C30.7145 76.8904 30.7111 76.8808 30.7097 76.8701C30.7083 76.8594 30.7092 76.8487 30.7129 76.8379C30.723 76.8424 30.7312 76.8494 30.737 76.8583C30.7423 76.8668 30.7467 76.8763 30.7506 76.8853C30.7548 76.8952 30.7577 76.9056 30.7612 76.9155C30.7706 76.9416 30.7797 76.9678 30.79 76.9936C30.8073 77.0365 30.8339 77.0723 30.8703 77.1003C30.875 77.1042 30.8794 77.104 30.8844 77.1013C30.8972 77.0948 30.903 77.0805 30.8981 77.0681C30.8935 77.0564 30.8791 77.05 30.8659 77.0548C30.8612 77.0564 30.8602 77.0548 30.8592 77.0507C30.8537 77.0295 30.8478 77.008 30.8419 76.9869C30.8356 76.9628 30.8278 76.9392 30.8286 76.9137C30.8297 76.8801 30.8403 76.8536 30.8597 76.826C30.8612 76.8241 30.8627 76.8222 30.8648 76.8194C30.8658 76.8219 30.8664 76.8236 30.8671 76.8252C30.9096 76.9326 30.9504 77.0355 30.9929 77.1428C30.9953 77.1489 30.9953 77.1489 30.9895 77.1512C30.9678 77.1601 30.9458 77.1691 30.924 77.178C30.9202 77.1795 30.919 77.1813 30.9197 77.1855C30.925 77.2175 30.9198 77.248 30.9031 77.2761C30.8997 77.282 30.8973 77.2887 30.8943 77.2951C30.8762 77.2857 30.855 77.2828 30.8378 77.2702C30.8238 77.2598 30.8111 77.2479 30.8017 77.233C30.7994 77.2298 30.7973 77.2293 30.794 77.2307C30.7717 77.2398 30.7497 77.2488 30.7274 77.2578C30.7236 77.2594 30.7216 77.2593 30.7199 77.2548C30.6771 77.1469 30.636 77.0432 30.5933 76.9353C30.5925 76.935 30.5921 76.9339 30.5909 76.9308ZM30.6347 76.9703C30.6342 76.9708 30.6334 76.9712 30.633 76.9717C30.6337 76.9736 30.6345 76.9755 30.6353 76.9775C30.6558 77.0294 30.6747 77.0771 30.6952 77.1289C30.6986 77.1375 30.6986 77.1375 30.7074 77.1339C30.7107 77.1326 30.7121 77.1311 30.7116 77.1274C30.7108 77.1158 30.7143 77.1053 30.7214 77.0966C30.7244 77.0928 30.724 77.0901 30.7219 77.0865C30.7118 77.0683 30.7014 77.0501 30.6922 77.0316C30.6823 77.0124 30.672 76.9992 30.6552 76.9858C30.6485 76.9802 30.6415 76.9756 30.6347 76.9703ZM30.8617 76.8786C30.8612 76.8789 30.8608 76.8787 30.8602 76.8789C30.8595 76.8818 30.8587 76.8847 30.8582 76.8875C30.854 76.9085 30.8504 76.9251 30.8555 76.946C30.862 76.9723 30.8692 76.9983 30.876 77.0245C30.8768 77.0281 30.8785 77.03 30.8826 77.0306C30.8937 77.0321 30.9033 77.0369 30.911 77.0457C30.9145 77.0498 30.9179 77.0496 30.9245 77.0453C30.9286 77.0427 30.9256 77.0401 30.9247 77.0376C30.9038 76.9849 30.8846 76.9363 30.8636 76.8834C30.8632 76.8816 30.8625 76.8799 30.8617 76.8786ZM30.777 77.1722C30.7755 77.1725 30.7737 77.1729 30.7716 77.1732C30.7527 77.1763 30.7358 77.1733 30.7232 77.1575C30.7214 77.1553 30.7198 77.1546 30.7174 77.1559C30.7155 77.1567 30.7136 77.1575 30.7117 77.1583C30.7089 77.1594 30.7083 77.161 30.7094 77.1638C30.7176 77.1846 30.7259 77.2056 30.7345 77.2263C30.7349 77.2274 30.7381 77.229 30.7392 77.2286C30.7542 77.2228 30.7693 77.2166 30.784 77.2103C30.7851 77.2098 30.7866 77.207 30.7864 77.2058C30.7833 77.1948 30.7803 77.1838 30.777 77.1722ZM30.8947 77.1242C30.9002 77.1348 30.9058 77.1448 30.9112 77.1552C30.9126 77.1581 30.9148 77.1572 30.917 77.1563C30.9311 77.1506 30.9447 77.1447 30.9589 77.1393C30.9633 77.1375 30.964 77.1352 30.9621 77.1312C30.9544 77.1127 30.9473 77.094 30.9399 77.0752C30.9365 77.0666 30.9365 77.0666 30.9279 77.07C30.9255 77.0711 30.9233 77.072 30.9236 77.0753C30.9252 77.0937 30.9169 77.1074 30.9033 77.1184C30.9003 77.1206 30.8972 77.1222 30.8947 77.1242ZM30.8054 77.0698C30.8062 77.0943 30.8067 77.1182 30.8026 77.1425C30.8134 77.1448 30.8236 77.1471 30.8339 77.149C30.8353 77.1494 30.8379 77.1477 30.8389 77.1463C30.8443 77.139 30.849 77.1313 30.8543 77.1239C30.856 77.1216 30.856 77.12 30.8536 77.1181C30.8368 77.1053 30.8226 77.0898 30.8091 77.0734C30.8077 77.0724 30.8065 77.0709 30.8054 77.0698ZM30.8234 77.2193C30.828 77.2342 30.8546 77.2569 30.8651 77.2568C30.8653 77.2564 30.8654 77.256 30.8654 77.256C30.8597 77.2416 30.8543 77.227 30.8484 77.213C30.848 77.2119 30.8454 77.211 30.8442 77.2112C30.8371 77.2134 30.8303 77.2165 30.8234 77.2193ZM30.8884 77.2479C30.8975 77.2361 30.8995 77.2008 30.8932 77.1905C30.8871 77.193 30.8805 77.1957 30.8745 77.1982C30.8709 77.1996 30.8704 77.2015 30.8717 77.2048C30.8763 77.2164 30.8809 77.2281 30.8855 77.2397C30.8862 77.2423 30.8872 77.2448 30.8884 77.2479ZM30.8244 77.1935C30.8279 77.192 30.8319 77.1907 30.8353 77.1887C30.8364 77.1883 30.8377 77.1852 30.8371 77.1844C30.8306 77.1729 30.8187 77.1655 30.8061 77.1675C30.8034 77.1679 30.8022 77.169 30.8027 77.1717C30.8045 77.1797 30.8067 77.1875 30.8086 77.1957C30.8095 77.1986 30.8116 77.199 30.814 77.198C30.8172 77.1964 30.8208 77.195 30.8244 77.1935ZM30.875 77.1728C30.8783 77.1715 30.8813 77.1703 30.8846 77.1689C30.888 77.1678 30.8894 77.1657 30.8874 77.1623C30.8839 77.1557 30.8803 77.1491 30.8765 77.1426C30.8746 77.1395 30.8726 77.1393 30.8697 77.1418C30.8605 77.1491 30.8556 77.1643 30.8596 77.1752C30.8601 77.1763 30.8628 77.1775 30.864 77.1773C30.868 77.176 30.8714 77.1743 30.875 77.1728Z" fill="white"/>
<path d="M31.7775 76.3592L32.1801 77.5261C31.6829 78.3163 30.4172 78.3859 29.8465 78.3219L29.4538 77.1269C29.4538 77.1269 29.6536 77.1056 29.7754 77.0669C29.9213 77.0205 30.1274 76.8943 30.1274 76.8943L31.1113 77.7231L31.1335 76.517C31.1335 76.517 31.3502 76.5569 31.4822 76.5234C31.6101 76.4909 31.7775 76.3592 31.7775 76.3592Z" fill="white"/>
<ellipse cx="34.4927" cy="91.1223" rx="2.475" ry="0.675" transform="rotate(-14.214 34.4927 91.1223)" fill="white"/>
<rect x="31.5039" y="90.332" width="5.55" height="2.175" transform="rotate(-14.214 31.5039 90.332)" fill="white"/>
<path d="M38.3905 110.759C36.7653 105.873 37.5656 104.738 38.8734 104.303C40.1813 103.868 41.5015 104.297 43.1267 109.184C44.7519 114.07 44.7589 121.998 44.7589 121.998C42.9131 116.449 40.0158 115.645 38.3905 110.759Z" fill="#FF0000"/>
<path d="M39.8612 107.274C38.236 102.388 39.0363 101.254 40.3441 100.819C41.652 100.384 42.9722 100.813 44.5974 105.699C46.2226 110.585 46.2296 118.514 46.2296 118.514C44.3838 112.964 41.4865 112.161 39.8612 107.274Z" fill="#FF0000"/>
<path d="M34.6894 107.533C33.0641 102.647 33.8644 101.513 35.1723 101.078C36.4801 100.643 37.8003 101.072 39.4255 105.958C41.0507 110.844 41.0577 118.773 41.0577 118.773C39.2119 113.223 36.3146 112.419 34.6894 107.533Z" fill="#FF0000"/>
<rect x="23.6328" y="76.8384" width="15.0228" height="29.5047" transform="rotate(-14.214 23.6328 76.8384)" fill="#B7B7B7"/>
<ellipse cx="38.1505" cy="103.566" rx="7.51138" ry="2.97451" transform="rotate(-14.214 38.1505 103.566)" fill="#B7B7B7"/>
<path fill-rule="evenodd" clip-rule="evenodd" d="M37.9242 71.9846L23.3613 75.6733L30.606 104.275L30.6072 104.274C31.0462 105.844 34.6142 106.297 38.6113 105.285C42.6327 104.266 45.5657 102.149 45.1624 100.557C45.1587 100.543 45.1549 100.529 45.1507 100.514L37.9242 71.9846Z" fill="url(#paint0_linear_711_69)"/>
<path d="M23.3099 75.4748C24.7483 81.1536 39.3309 77.4598 37.8924 71.7811C35.9256 64.016 26.3887 57.4875 26.3887 57.4875C26.3887 57.4875 21.3282 67.6516 23.3099 75.4748Z" fill="url(#paint1_linear_711_69)"/>
<path d="M22.6777 103.179L29.8524 101.361L25.7565 85.1914C25.7565 85.1914 20.6961 95.3555 22.6777 103.179Z" fill="url(#paint2_linear_711_69)"/>
<path d="M51.6094 95.8501L44.4347 97.6674L40.3389 81.4974C40.3389 81.4974 49.6278 88.0269 51.6094 95.8501Z" fill="url(#paint3_linear_711_69)"/>
<ellipse cx="34.3046" cy="90.2712" rx="5.02592" ry="6.34306" transform="rotate(-14.214 34.3046 90.2712)" fill="#EDEDED"/>
<ellipse cx="34.3031" cy="90.2714" rx="4.19405" ry="5.58051" transform="rotate(-14.214 34.3031 90.2714)" fill="#888888"/>
<ellipse cx="29.8648" cy="79.8531" rx="0.338995" ry="0.532706" transform="rotate(-4.5729 29.8648 79.8531)" fill="#090909"/>
<ellipse cx="0.338994" cy="0.532706" rx="0.338994" ry="0.532706" transform="matrix(-0.918374 0.395714 0.395714 0.918374 33.4238 78.275)" fill="#090909"/>
<path fill-rule="evenodd" clip-rule="evenodd" d="M31.1756 77.5895C30.5274 77.7587 29.3456 78.3581 29.8043 79.4019C30.1118 80.1016 29.9386 80.4112 29.7513 80.7458C29.5894 81.0352 29.417 81.3432 29.5359 81.9385C29.6438 82.4791 29.8828 82.8168 30.1214 83.1539C30.4493 83.6171 30.7763 84.0791 30.761 85.0648C30.74 86.4272 31.6475 90.0862 32.1176 91.7284L34.5337 91.1163L34.5335 91.1156L36.9171 90.5239C36.5646 88.8525 35.6979 85.2206 35.0422 84.0262C34.5801 83.1846 34.7492 82.6659 34.9177 82.1488C35.0481 81.7486 35.1783 81.3493 35.0152 80.802C34.8409 80.217 34.4654 80.002 34.1038 79.795C33.6901 79.5582 33.2946 79.3318 33.2394 78.5733C33.1568 77.4372 31.834 77.459 31.1813 77.6123L31.1756 77.5895Z" fill="white"/>
<ellipse cx="0.819266" cy="1.15399" rx="0.819266" ry="1.15399" transform="matrix(-0.77359 0.633687 0.633687 0.77359 30.2871 80.8866)" fill="url(#paint4_radial_711_69)"/>
<ellipse cx="0.819266" cy="1.15399" rx="0.819266" ry="1.15399" transform="matrix(-0.946604 -0.322399 -0.322399 0.946604 35.3809 80.5753)" fill="url(#paint5_radial_711_69)"/>
<path d="M36.2619 87.718C34.7222 88.8929 32.3931 89.1851 31.4397 89.0241L31.5916 89.5877C33.7824 90.0978 35.7018 88.9161 36.4118 88.277L36.2619 87.718Z" fill="#005BBB"/>
<path d="M36.4112 88.2584C34.5899 89.7489 32.5407 89.7298 31.5842 89.5799L31.7126 90.0192C33.9131 90.5039 35.8629 89.5308 36.5599 88.8833L36.4112 88.2584Z" fill="#FFD500"/>
<ellipse opacity="0.2" cx="33.2639" cy="78.7316" rx="0.151968" ry="0.238807" transform="rotate(10.1084 33.2639 78.7316)" fill="white"/>
<ellipse opacity="0.2" cx="29.7952" cy="79.6479" rx="0.151968" ry="0.238807" transform="rotate(10.1084 29.7952 79.6479)" fill="white"/>
<path d="M30.5047 80.5695C30.0235 78.9526 31.5247 78.29 31.5231 78.3119C33.2057 78.3429 33.4138 79.788 33.4097 80.0106C33.3984 80.623 34.4812 80.8931 34.3439 81.5625C34.2065 82.2319 34.5198 83.4773 34.5007 84.4052C34.4889 84.9738 34.3197 85.2223 34.1782 85.3101C34.2194 85.3002 34.2027 85.3066 34.1621 85.3194C34.1249 85.3396 34.0902 85.3488 34.0616 85.35C34.099 85.3388 34.1356 85.3278 34.1621 85.3194C34.1674 85.3165 34.1728 85.3134 34.1782 85.3101C34.124 85.323 33.9698 85.3639 33.6386 85.455C32.7044 85.7118 32.3394 84.4926 31.1785 83.2839C30.0177 82.0751 31.1063 82.5908 30.5047 80.5695Z" fill="#FF6B0A"/>
<path d="M33.4925 84.8555C32.7241 84.9763 32.0669 83.3673 31.8343 82.5477C32.2712 82.3311 33.2377 81.9398 33.6086 82.1072C34.0722 82.3165 34.4529 84.7043 33.4925 84.8555Z" fill="#090909"/>
<path d="M33.5901 84.6059C34.1002 84.4094 33.648 83.2983 33.3582 82.7673L32.3359 83.0211C32.5415 83.6312 33.08 84.8024 33.5901 84.6059Z" fill="#956C7C"/>
<path d="M33.4301 84.2081C33.5195 84.1035 33.0777 83.0026 32.8456 82.4653L32.627 82.545C32.8574 83.143 33.3407 84.3128 33.4301 84.2081Z" fill="#86616F"/>
<path d="M31.3681 81.9888C31.6074 80.7817 31.1625 80.256 30.9101 80.144C31.4407 78.9045 32.5021 79.2872 32.9664 79.6335C32.6297 80.8398 32.8662 79.8829 33.6594 81.42C34.294 82.6496 33.5418 83.3078 33.0864 83.4833C32.4139 83.488 31.1289 83.1958 31.3681 81.9888Z" fill="#EB6005"/>
<path d="M33.8613 81.9499C32.252 80.6129 31.6608 82.0304 31.5664 82.9063C31.7577 83.208 32.3361 83.7456 33.1188 83.4814C33.9015 83.2173 33.9399 82.3503 33.8613 81.9499Z" fill="#EFE5D5"/>
<path d="M32.4668 82.077C32.419 81.941 32.3079 81.6951 32.2457 81.7996C32.1834 81.904 32.3671 82.028 32.4668 82.077Z" fill="#DACAB0"/>
<path d="M32.7308 82.0117C32.6873 81.8743 32.6285 81.611 32.741 81.6571C32.8534 81.7032 32.781 81.9127 32.7308 82.0117Z" fill="#DACAB0"/>
<path d="M31.7775 76.3592L32.1801 77.5261C31.6829 78.3163 30.4172 78.3859 29.8465 78.3219L29.4538 77.1269L31.7775 76.3592Z" fill="#2B2900"/>
<path d="M32.1795 77.5259C32.1889 78.2079 31.7061 79.2667 29.846 78.3123L32.1795 77.5259Z" fill="#2B2900"/>
<ellipse cx="30.6178" cy="76.7423" rx="1.22567" ry="0.211275" transform="rotate(-17.973 30.6178 76.7423)" fill="#2B2900"/>
<path d="M30.5909 76.9308C30.5974 76.932 30.6028 76.9327 30.6079 76.9342C30.65 76.9454 30.6808 76.9657 30.7037 77.0027C30.7135 77.0184 30.7215 77.0354 30.7301 77.0515C30.7377 77.0658 30.7452 77.0799 30.753 77.0941C30.7551 77.0977 30.7552 77.0996 30.751 77.102C30.742 77.1066 30.7358 77.1143 30.7356 77.125C30.7352 77.1345 30.7396 77.1417 30.7472 77.1464C30.7549 77.1513 30.7634 77.151 30.7718 77.1479C30.7759 77.1462 30.778 77.1435 30.7787 77.1387C30.7844 77.1022 30.782 77.0664 30.7728 77.0309C30.765 77.0016 30.7517 76.9744 30.7396 76.9472C30.7328 76.9316 30.7264 76.9155 30.719 76.9001C30.7145 76.8904 30.7111 76.8808 30.7097 76.8701C30.7083 76.8594 30.7092 76.8487 30.7129 76.8379C30.723 76.8424 30.7312 76.8494 30.737 76.8583C30.7423 76.8668 30.7467 76.8763 30.7506 76.8853C30.7548 76.8952 30.7577 76.9056 30.7612 76.9155C30.7706 76.9416 30.7797 76.9678 30.79 76.9936C30.8073 77.0365 30.8339 77.0723 30.8703 77.1003C30.875 77.1042 30.8794 77.104 30.8844 77.1013C30.8972 77.0948 30.903 77.0805 30.8981 77.0681C30.8935 77.0564 30.8791 77.05 30.8659 77.0548C30.8612 77.0564 30.8602 77.0548 30.8592 77.0507C30.8537 77.0295 30.8478 77.008 30.8419 76.9869C30.8356 76.9628 30.8278 76.9392 30.8286 76.9137C30.8297 76.8801 30.8403 76.8536 30.8597 76.826C30.8612 76.8241 30.8627 76.8222 30.8648 76.8194C30.8658 76.8219 30.8664 76.8236 30.8671 76.8252C30.9096 76.9326 30.9504 77.0355 30.9929 77.1428C30.9953 77.1489 30.9953 77.1489 30.9895 77.1512C30.9678 77.1601 30.9458 77.1691 30.924 77.178C30.9202 77.1795 30.919 77.1813 30.9197 77.1855C30.925 77.2175 30.9198 77.248 30.9031 77.2761C30.8997 77.282 30.8973 77.2887 30.8943 77.2951C30.8762 77.2857 30.855 77.2828 30.8378 77.2702C30.8238 77.2598 30.8111 77.2479 30.8017 77.233C30.7994 77.2298 30.7973 77.2293 30.794 77.2307C30.7717 77.2398 30.7497 77.2488 30.7274 77.2578C30.7236 77.2594 30.7216 77.2593 30.7199 77.2548C30.6771 77.1469 30.636 77.0432 30.5933 76.9353C30.5925 76.935 30.5921 76.9339 30.5909 76.9308ZM30.6347 76.9703C30.6342 76.9708 30.6334 76.9712 30.633 76.9717C30.6337 76.9736 30.6345 76.9755 30.6353 76.9775C30.6558 77.0294 30.6747 77.0771 30.6952 77.1289C30.6986 77.1375 30.6986 77.1375 30.7074 77.1339C30.7107 77.1326 30.7121 77.1311 30.7116 77.1274C30.7108 77.1158 30.7143 77.1053 30.7214 77.0966C30.7244 77.0928 30.724 77.0901 30.7219 77.0865C30.7118 77.0683 30.7014 77.0501 30.6922 77.0316C30.6823 77.0124 30.672 76.9992 30.6552 76.9858C30.6485 76.9802 30.6415 76.9756 30.6347 76.9703ZM30.8617 76.8786C30.8612 76.8789 30.8608 76.8787 30.8602 76.8789C30.8595 76.8818 30.8587 76.8847 30.8582 76.8875C30.854 76.9085 30.8504 76.9251 30.8555 76.946C30.862 76.9723 30.8692 76.9983 30.876 77.0245C30.8768 77.0281 30.8785 77.03 30.8826 77.0306C30.8937 77.0321 30.9033 77.0369 30.911 77.0457C30.9145 77.0498 30.9179 77.0496 30.9245 77.0453C30.9286 77.0427 30.9256 77.0401 30.9247 77.0376C30.9038 76.9849 30.8846 76.9363 30.8636 76.8834C30.8632 76.8816 30.8625 76.8799 30.8617 76.8786ZM30.777 77.1722C30.7755 77.1725 30.7737 77.1729 30.7716 77.1732C30.7527 77.1763 30.7358 77.1733 30.7232 77.1575C30.7214 77.1553 30.7198 77.1546 30.7174 77.1559C30.7155 77.1567 30.7136 77.1575 30.7117 77.1583C30.7089 77.1594 30.7083 77.161 30.7094 77.1638C30.7176 77.1846 30.7259 77.2056 30.7345 77.2263C30.7349 77.2274 30.7381 77.229 30.7392 77.2286C30.7542 77.2228 30.7693 77.2166 30.784 77.2103C30.7851 77.2098 30.7866 77.207 30.7864 77.2058C30.7833 77.1948 30.7803 77.1838 30.777 77.1722ZM30.8947 77.1242C30.9002 77.1348 30.9058 77.1448 30.9112 77.1552C30.9126 77.1581 30.9148 77.1572 30.917 77.1563C30.9311 77.1506 30.9447 77.1447 30.9589 77.1393C30.9633 77.1375 30.964 77.1352 30.9621 77.1312C30.9544 77.1127 30.9473 77.094 30.9399 77.0752C30.9365 77.0666 30.9365 77.0666 30.9279 77.07C30.9255 77.0711 30.9233 77.072 30.9236 77.0753C30.9252 77.0937 30.9169 77.1074 30.9033 77.1184C30.9003 77.1206 30.8972 77.1222 30.8947 77.1242ZM30.8054 77.0698C30.8062 77.0943 30.8067 77.1182 30.8026 77.1425C30.8134 77.1448 30.8236 77.1471 30.8339 77.149C30.8353 77.1494 30.8379 77.1477 30.8389 77.1463C30.8443 77.139 30.849 77.1313 30.8543 77.1239C30.856 77.1216 30.856 77.12 30.8536 77.1181C30.8368 77.1053 30.8226 77.0898 30.8091 77.0734C30.8077 77.0724 30.8065 77.0709 30.8054 77.0698ZM30.8234 77.2193C30.828 77.2342 30.8546 77.2569 30.8651 77.2568C30.8653 77.2564 30.8654 77.256 30.8654 77.256C30.8597 77.2416 30.8543 77.227 30.8484 77.213C30.848 77.2119 30.8454 77.211 30.8442 77.2112C30.8371 77.2134 30.8303 77.2165 30.8234 77.2193ZM30.8884 77.2479C30.8975 77.2361 30.8995 77.2008 30.8932 77.1905C30.8871 77.193 30.8805 77.1957 30.8745 77.1982C30.8709 77.1996 30.8704 77.2015 30.8717 77.2048C30.8763 77.2164 30.8809 77.2281 30.8855 77.2397C30.8862 77.2423 30.8872 77.2448 30.8884 77.2479ZM30.8244 77.1935C30.8279 77.192 30.8319 77.1907 30.8353 77.1887C30.8364 77.1883 30.8377 77.1852 30.8371 77.1844C30.8306 77.1729 30.8187 77.1655 30.8061 77.1675C30.8034 77.1679 30.8022 77.169 30.8027 77.1717C30.8045 77.1797 30.8067 77.1875 30.8086 77.1957C30.8095 77.1986 30.8116 77.199 30.814 77.198C30.8172 77.1964 30.8208 77.195 30.8244 77.1935ZM30.875 77.1728C30.8783 77.1715 30.8813 77.1703 30.8846 77.1689C30.888 77.1678 30.8894 77.1657 30.8874 77.1623C30.8839 77.1557 30.8803 77.1491 30.8765 77.1426C30.8746 77.1395 30.8726 77.1393 30.8697 77.1418C30.8605 77.1491 30.8556 77.1643 30.8596 77.1752C30.8601 77.1763 30.8628 77.1775 30.864 77.1773C30.868 77.176 30.8714 77.1743 30.875 77.1728Z" fill="#FFD500"/>
<path d="M31.7775 76.3592L32.1801 77.5261C31.6829 78.3163 30.4172 78.3859 29.8465 78.3219L29.4538 77.1269C29.4538 77.1269 29.6536 77.1056 29.7754 77.0669C29.9213 77.0205 30.1274 76.8943 30.1274 76.8943L31.1113 77.7231L31.1335 76.517C31.1335 76.517 31.3502 76.5569 31.4822 76.5234C31.6101 76.4909 31.7775 76.3592 31.7775 76.3592Z" fill="#4B4800"/>
<ellipse cx="34.4927" cy="91.1223" rx="2.475" ry="0.675" transform="rotate(-14.214 34.4927 91.1223)" fill="white"/>
<rect x="31.5039" y="90.332" width="5.55" height="2.175" transform="rotate(-14.214 31.5039 90.332)" fill="url(#paint6_linear_711_69)"/>
<path d="M45.5227 82.1104H45.2132L45.3565 81.836C45.772 81.0411 46.0177 80.1313 45.7508 79.2461C45.4855 78.3661 44.6975 77.4589 42.9311 76.7013C42.0481 76.3226 41.2612 76.0303 40.5471 75.765C40.3576 75.6945 40.1732 75.626 39.9936 75.5583C39.1401 75.2367 38.3904 74.9324 37.7209 74.5296C36.3671 73.715 35.3658 72.5125 34.4236 70.0208C32.7131 65.4969 33.0978 61.9448 34.489 59.3528C35.8772 56.7663 38.2553 55.1592 40.4923 54.4973C42.7146 53.8397 48.761 53.1119 54.7739 53.2531C57.7828 53.3238 60.7943 53.6121 63.3226 54.2399C65.8427 54.8656 67.9204 55.8375 69.0162 57.304C71.1511 60.161 72.2484 63.6231 72.3537 66.7176C72.4587 69.8034 71.5764 72.5699 69.692 73.9801C68.9343 74.5471 67.5652 75.0477 65.9246 75.479C64.2754 75.9125 62.3241 76.2828 60.3796 76.5778C56.6105 77.1495 52.8381 77.4423 51.326 77.356C50.8375 78.3743 50.1011 79.5318 49.1537 80.4496C48.1702 81.4023 46.9442 82.1104 45.5227 82.1104Z" fill="white" stroke="#090909" stroke-width="0.375"/>
<path d="M36.6672 64.7725L36.9897 64.0243C37.1832 64.1404 37.3896 64.2307 37.6089 64.2952C37.8325 64.3554 38.0497 64.3898 38.2604 64.3984C38.4754 64.4027 38.6689 64.3812 38.8409 64.3339C39.0172 64.2866 39.1569 64.2156 39.2601 64.121C39.3676 64.0264 39.4214 63.906 39.4214 63.7598C39.4214 63.5878 39.3504 63.461 39.2085 63.3793C39.0666 63.2933 38.8774 63.2503 38.6409 63.2503H37.538V62.4634H38.5635C38.7742 62.4634 38.9376 62.4204 39.0537 62.3344C39.1741 62.2484 39.2343 62.1301 39.2343 61.9796C39.2343 61.8506 39.1913 61.7474 39.1053 61.67C39.0193 61.5883 38.9011 61.5281 38.7506 61.4894C38.6044 61.4507 38.4388 61.4335 38.2539 61.4378C38.069 61.4421 37.8777 61.4722 37.6799 61.5281C37.4821 61.584 37.2929 61.6614 37.1123 61.7603L36.7962 60.9541C37.0886 60.8036 37.3961 60.7004 37.7186 60.6445C38.0454 60.5843 38.3593 60.5692 38.6603 60.5993C38.9656 60.6251 39.2408 60.6939 39.4859 60.8057C39.731 60.9132 39.9266 61.0551 40.0728 61.2314C40.219 61.4077 40.2921 61.6163 40.2921 61.8571C40.2921 62.0721 40.2362 62.2634 40.1244 62.4311C40.0126 62.5988 39.8557 62.7278 39.6536 62.8181C39.4558 62.9084 39.2279 62.9536 38.9699 62.9536L38.9957 62.7214C39.2967 62.7214 39.5568 62.773 39.7761 62.8762C39.9997 62.9751 40.1717 63.1148 40.2921 63.2954C40.4168 63.4717 40.4792 63.676 40.4792 63.9082C40.4792 64.1232 40.4211 64.3167 40.305 64.4887C40.1932 64.6564 40.0384 64.7983 39.8406 64.9144C39.6428 65.0305 39.4171 65.1165 39.1634 65.1724C38.9097 65.2283 38.6388 65.2519 38.3507 65.2433C38.0669 65.2347 37.7809 65.1939 37.4928 65.1208C37.2047 65.0434 36.9295 64.9273 36.6672 64.7725ZM43.3059 65.1724V64.4951L43.2414 64.3468V63.1342C43.2414 62.9192 43.1747 62.7515 43.0414 62.6311C42.9124 62.5107 42.7125 62.4505 42.4416 62.4505C42.2567 62.4505 42.0739 62.4806 41.8933 62.5408C41.717 62.5967 41.5665 62.6741 41.4418 62.773L41.0806 62.0699C41.2698 61.9366 41.4977 61.8334 41.7643 61.7603C42.0309 61.6872 42.3018 61.6507 42.577 61.6507C43.1059 61.6507 43.5166 61.7754 43.809 62.0248C44.1014 62.2742 44.2476 62.6633 44.2476 63.1922V65.1724H43.3059ZM42.2481 65.224C41.9772 65.224 41.745 65.1788 41.5515 65.0885C41.358 64.9939 41.2096 64.8671 41.1064 64.708C41.0032 64.5489 40.9516 64.3704 40.9516 64.1726C40.9516 63.9662 41.0011 63.7856 41.1 63.6308C41.2032 63.476 41.3644 63.3556 41.5837 63.2696C41.803 63.1793 42.089 63.1342 42.4416 63.1342H43.3639V63.7211H42.5512C42.3147 63.7211 42.1513 63.7598 42.061 63.8372C41.975 63.9146 41.932 64.0114 41.932 64.1275C41.932 64.2565 41.9815 64.3597 42.0804 64.4371C42.1836 64.5102 42.3233 64.5467 42.4996 64.5467C42.6673 64.5467 42.8178 64.508 42.9511 64.4306C43.0844 64.3489 43.1812 64.2307 43.2414 64.0759L43.3962 64.5403C43.3231 64.7639 43.1898 64.9337 42.9963 65.0498C42.8028 65.1659 42.5534 65.224 42.2481 65.224ZM45.1217 65.1724V61.7023H48.5724V65.1724H47.5662V62.3021L47.792 62.5279H45.8957L46.1214 62.3021V65.1724H45.1217ZM50.008 66.4753C49.8274 66.4753 49.6489 66.4473 49.4726 66.3914C49.2963 66.3355 49.1523 66.2581 49.0405 66.1592L49.4081 65.4433C49.4855 65.5121 49.5737 65.5658 49.6726 65.6045C49.7758 65.6432 49.8768 65.6626 49.9757 65.6626C50.1176 65.6626 50.2294 65.6282 50.3111 65.5594C50.3971 65.4949 50.4745 65.3852 50.5433 65.2304L50.7239 64.8047L50.8013 64.6951L52.0462 61.7023H53.0137L51.4463 65.3852C51.3345 65.6647 51.2055 65.884 51.0593 66.0431C50.9174 66.2022 50.7583 66.314 50.582 66.3785C50.41 66.443 50.2187 66.4753 50.008 66.4753ZM50.6014 65.3078L49.0534 61.7023H50.0918L51.2915 64.6048L50.6014 65.3078ZM55.0558 65.224C54.6817 65.224 54.3485 65.1487 54.0561 64.9982C53.7637 64.8434 53.5336 64.6306 53.3659 64.3597C53.2025 64.0888 53.1208 63.7813 53.1208 63.4373C53.1208 63.089 53.2025 62.7816 53.3659 62.515C53.5336 62.2441 53.7637 62.0334 54.0561 61.8829C54.3485 61.7281 54.6817 61.6507 55.0558 61.6507C55.4213 61.6507 55.7395 61.7281 56.0104 61.8829C56.2813 62.0334 56.4813 62.2505 56.6103 62.5343L55.8298 62.9536C55.7395 62.7902 55.6256 62.6698 55.488 62.5924C55.3547 62.515 55.2085 62.4763 55.0494 62.4763C54.8774 62.4763 54.7226 62.515 54.585 62.5924C54.4474 62.6698 54.3377 62.7794 54.256 62.9213C54.1786 63.0632 54.1399 63.2352 54.1399 63.4373C54.1399 63.6394 54.1786 63.8114 54.256 63.9533C54.3377 64.0952 54.4474 64.2049 54.585 64.2823C54.7226 64.3597 54.8774 64.3984 55.0494 64.3984C55.2085 64.3984 55.3547 64.3618 55.488 64.2887C55.6256 64.2113 55.7395 64.0888 55.8298 63.9211L56.6103 64.3468C56.4813 64.6263 56.2813 64.8434 56.0104 64.9982C55.7395 65.1487 55.4213 65.224 55.0558 65.224ZM59.6792 65.1724L58.5182 63.5276L59.3373 63.0439L60.866 65.1724H59.6792ZM57.2217 65.1724V61.7023H58.2279V65.1724H57.2217ZM57.9312 63.8566V63.0503H59.1438V63.8566H57.9312ZM59.4341 63.5534L58.4924 63.4502L59.7114 61.7023H60.7821L59.4341 63.5534ZM63.374 65.1724V64.4951L63.3095 64.3468V63.1342C63.3095 62.9192 63.2428 62.7515 63.1095 62.6311C62.9805 62.5107 62.7806 62.4505 62.5097 62.4505C62.3248 62.4505 62.142 62.4806 61.9614 62.5408C61.7851 62.5967 61.6346 62.6741 61.5099 62.773L61.1487 62.0699C61.3379 61.9366 61.5658 61.8334 61.8324 61.7603C62.099 61.6872 62.3699 61.6507 62.6451 61.6507C63.174 61.6507 63.5847 61.7754 63.8771 62.0248C64.1695 62.2742 64.3157 62.6633 64.3157 63.1922V65.1724H63.374ZM62.3162 65.224C62.0453 65.224 61.8131 65.1788 61.6196 65.0885C61.4261 64.9939 61.2777 64.8671 61.1745 64.708C61.0713 64.5489 61.0197 64.3704 61.0197 64.1726C61.0197 63.9662 61.0692 63.7856 61.1681 63.6308C61.2713 63.476 61.4325 63.3556 61.6518 63.2696C61.8711 63.1793 62.1571 63.1342 62.5097 63.1342H63.432V63.7211H62.6193C62.3828 63.7211 62.2194 63.7598 62.1291 63.8372C62.0431 63.9146 62.0001 64.0114 62.0001 64.1275C62.0001 64.2565 62.0496 64.3597 62.1485 64.4371C62.2517 64.5102 62.3914 64.5467 62.5677 64.5467C62.7354 64.5467 62.8859 64.508 63.0192 64.4306C63.1525 64.3489 63.2493 64.2307 63.3095 64.0759L63.4643 64.5403C63.3912 64.7639 63.2579 64.9337 63.0644 65.0498C62.8709 65.1659 62.6215 65.224 62.3162 65.224ZM65.1897 65.1724V61.7023H66.1895V63.7663L67.8794 61.7023H68.8017V65.1724H67.802V63.1084L66.1185 65.1724H65.1897ZM66.9312 61.3282C66.5528 61.3282 66.269 61.2465 66.0798 61.0831C65.8906 60.9154 65.7939 60.6638 65.7896 60.3284H66.4475C66.4518 60.4746 66.4926 60.5907 66.57 60.6767C66.6474 60.7627 66.7657 60.8057 66.9248 60.8057C67.0796 60.8057 67.1978 60.7627 67.2795 60.6767C67.3655 60.5907 67.4085 60.4746 67.4085 60.3284H68.0793C68.0793 60.6638 67.9826 60.9154 67.7891 61.0831C67.5956 61.2465 67.3096 61.3282 66.9312 61.3282ZM44.9579 71.1724V67.7023H47.7378V68.5279H45.7319L45.9576 68.3086V71.1724H44.9579ZM48.7608 72.4753C48.5802 72.4753 48.4018 72.4473 48.2255 72.3914C48.0492 72.3355 47.9051 72.2581 47.7933 72.1592L48.161 71.4433C48.2384 71.5121 48.3265 71.5658 48.4254 71.6045C48.5286 71.6432 48.6297 71.6626 48.7286 71.6626C48.8705 71.6626 48.9823 71.6282 49.064 71.5594C49.15 71.4949 49.2274 71.3852 49.2962 71.2304L49.4768 70.8047L49.5542 70.6951L50.799 67.7023H51.7665L50.1992 71.3852C50.0874 71.6647 49.9584 71.884 49.8122 72.0431C49.6703 72.2022 49.5112 72.314 49.3349 72.3785C49.1629 72.443 48.9715 72.4753 48.7608 72.4753ZM49.3542 71.3078L47.8062 67.7023H48.8447L50.0444 70.6048L49.3542 71.3078ZM53.8087 71.224C53.4346 71.224 53.1013 71.1487 52.8089 70.9982C52.5165 70.8434 52.2865 70.6306 52.1188 70.3597C51.9554 70.0888 51.8737 69.7813 51.8737 69.4373C51.8737 69.089 51.9554 68.7816 52.1188 68.515C52.2865 68.2441 52.5165 68.0334 52.8089 67.8829C53.1013 67.7281 53.4346 67.6507 53.8087 67.6507C54.1742 67.6507 54.4924 67.7281 54.7633 67.8829C55.0342 68.0334 55.2341 68.2505 55.3631 68.5343L54.5827 68.9536C54.4924 68.7902 54.3784 68.6698 54.2408 68.5924C54.1075 68.515 53.9613 68.4763 53.8022 68.4763C53.6302 68.4763 53.4754 68.515 53.3378 68.5924C53.2002 68.6698 53.0906 68.7794 53.0089 68.9213C52.9315 69.0632 52.8928 69.2352 52.8928 69.4373C52.8928 69.6394 52.9315 69.8114 53.0089 69.9533C53.0906 70.0952 53.2002 70.2049 53.3378 70.2823C53.4754 70.3597 53.6302 70.3984 53.8022 70.3984C53.9613 70.3984 54.1075 70.3618 54.2408 70.2887C54.3784 70.2113 54.4924 70.0888 54.5827 69.9211L55.3631 70.3468C55.2341 70.6263 55.0342 70.8434 54.7633 70.9982C54.4924 71.1487 54.1742 71.224 53.8087 71.224ZM58.0792 71.1724V70.0178L58.2211 70.1791H57.2601C56.7613 70.1791 56.37 70.0759 56.0862 69.8695C55.8024 69.6631 55.6605 69.3664 55.6605 68.9794C55.6605 68.5666 55.8088 68.2505 56.1055 68.0312C56.4065 67.8119 56.8107 67.7023 57.3181 67.7023H58.9758V71.1724H58.0792ZM55.6089 71.1724L56.5312 69.8501H57.5568L56.6796 71.1724H55.6089ZM58.0792 69.7082V68.2634L58.2211 68.5214H57.3375C57.1311 68.5214 56.9698 68.5601 56.8537 68.6375C56.7419 68.7149 56.686 68.8396 56.686 69.0116C56.686 69.3427 56.8989 69.5083 57.3246 69.5083H58.2211L58.0792 69.7082ZM59.9944 69.605L59.7945 66.6574H60.9942L60.7942 69.605H59.9944ZM60.3943 71.224C60.2137 71.224 60.0654 71.1659 59.9493 71.0498C59.8332 70.9337 59.7751 70.7961 59.7751 70.637C59.7751 70.4736 59.8332 70.3382 59.9493 70.2307C60.0654 70.1189 60.2137 70.063 60.3943 70.063C60.5792 70.063 60.7276 70.1189 60.8394 70.2307C60.9555 70.3382 61.0135 70.4736 61.0135 70.637C61.0135 70.7961 60.9555 70.9337 60.8394 71.0498C60.7276 71.1659 60.5792 71.224 60.3943 71.224Z" fill="#090909"/>
</g>
<defs>
<linearGradient id="paint0_linear_711_69" x1="25.7656" y1="83.3559" x2="47.7231" y2="83.896" gradientUnits="userSpaceOnUse">
<stop stop-color="#C8C8C8"/>
<stop offset="1" stop-color="white"/>
</linearGradient>
<linearGradient id="paint1_linear_711_69" x1="23.5381" y1="74.5644" x2="40.1668" y2="61.7877" gradientUnits="userSpaceOnUse">
<stop stop-color="#C8C8C8"/>
<stop offset="1" stop-color="white"/>
</linearGradient>
<linearGradient id="paint2_linear_711_69" x1="21.8754" y1="99.1197" x2="31.3473" y2="93.8225" gradientUnits="userSpaceOnUse">
<stop stop-color="#C8C8C8"/>
<stop offset="1" stop-color="white"/>
</linearGradient>
<linearGradient id="paint3_linear_711_69" x1="50.3827" y1="91.8986" x2="39.5312" y2="91.7492" gradientUnits="userSpaceOnUse">
<stop stop-color="#C8C8C8"/>
<stop offset="1" stop-color="white"/>
</linearGradient>
<radialGradient id="paint4_radial_711_69" cx="0" cy="0" r="1" gradientUnits="userSpaceOnUse" gradientTransform="translate(0.819266 1.15399) rotate(90) scale(1.15399 0.819266)">
<stop stop-color="#FFBBBB"/>
<stop offset="1" stop-color="#FFBBBB" stop-opacity="0"/>
</radialGradient>
<radialGradient id="paint5_radial_711_69" cx="0" cy="0" r="1" gradientUnits="userSpaceOnUse" gradientTransform="translate(0.819266 1.15399) rotate(90) scale(1.15399 0.819266)">
<stop stop-color="#FFBBBB"/>
<stop offset="1" stop-color="#FFBBBB" stop-opacity="0"/>
</radialGradient>
<linearGradient id="paint6_linear_711_69" x1="34.2789" y1="90.332" x2="34.2789" y2="92.507" gradientUnits="userSpaceOnUse">
<stop stop-color="#888888" stop-opacity="0"/>
<stop offset="1" stop-color="#888888"/>
</linearGradient>
<clipPath id="clip0_711_69">
<rect width="81" height="81" fill="white" transform="translate(1 45.9976)"/>
</clipPath>
</defs>
</svg>
