<svg width="168" height="174" viewBox="0 0 168 174" fill="none" xmlns="http://www.w3.org/2000/svg">
<path d="M43.7301 9.09305C30.3365 12.8338 25.6679 21.2026 25.0078 24.9194L37.9694 87.6855L33.2888 110.526C30.5525 124.05 32.1487 135.345 33.2888 139.301C31.2726 147.358 26.9281 154.528 25.0078 157.106C28.7523 166.458 42.77 170.235 49.3108 170.954C124.74 180.126 137.342 155.487 135.902 155.487C134.461 155.487 132.661 143.078 133.921 139.301C135.182 135.524 134.073 121.537 133.921 120.238C133.804 119.237 131.401 102.073 130.141 93.6204C129.601 91.8819 128.089 83.5131 126.36 63.9459C124.632 44.3787 137.642 32.0533 144.363 28.3365C135.002 12.69 117.539 7.47444 117.539 7.47444C117.539 7.47444 106.558 3.0982 102.778 1C102.778 1 91.7818 5.74935 84.3423 5.78728C76.7537 5.82596 65.5129 1 65.5129 1C64.1927 2.13902 57.1238 5.35226 43.7301 9.09305Z" fill="white" stroke="#383838" stroke-width="0.752241"/>
<path d="M136.375 102.217C134.079 98.3558 129.488 90.4891 129.488 89.91C127.616 82.2484 125.053 66.3875 126.358 54.515C127.663 42.6426 138.505 31.4327 144.364 28.356L167 91.3578C165.841 92.5161 146.1 99.0798 136.375 102.217Z" fill="white" stroke="#383838" stroke-width="0.752241"/>
<path d="M39.3279 51.3003C38.892 30.6787 29.9631 24.6761 25.1796 24.2526L1 87.7874L32.2436 97.7714L38.0412 87.8549C38.7678 84.2849 39.7639 71.9218 39.3279 51.3003Z" fill="white" stroke="#383838" stroke-width="0.752241"/>
<g clip-path="url(#clip0_747_3762)">
<mask id="path-4-outside-1_747_3762" maskUnits="userSpaceOnUse" x="100.34" y="61.1361" width="10" height="20" fill="black">
<rect fill="white" x="100.34" y="61.1361" width="10" height="20"/>
<path fill-rule="evenodd" clip-rule="evenodd" d="M105.852 70.7337C110.971 61.2 105.946 61.6135 101.34 62.6657L101.704 63.752C109.496 62.5547 107.164 67.0312 105.523 70.1807C105.43 70.3582 105.34 70.5314 105.254 70.6992C99.3803 80.3024 105.531 80.6198 109.34 79.5781C109.522 79.3333 109.427 79.0628 109.335 78.7997C109.218 78.4636 109.105 78.1394 109.577 77.8956C109.612 77.8794 109.647 77.863 109.682 77.8466C109.644 77.8626 109.609 77.8789 109.577 77.8956C106.159 79.4638 100.784 80.1697 105.852 70.7337Z"/>
</mask>
<path fill-rule="evenodd" clip-rule="evenodd" d="M105.852 70.7337C110.971 61.2 105.946 61.6135 101.34 62.6657L101.704 63.752C109.496 62.5547 107.164 67.0312 105.523 70.1807C105.43 70.3582 105.34 70.5314 105.254 70.6992C99.3803 80.3024 105.531 80.6198 109.34 79.5781C109.522 79.3333 109.427 79.0628 109.335 78.7997C109.218 78.4636 109.105 78.1394 109.577 77.8956C109.612 77.8794 109.647 77.863 109.682 77.8466C109.644 77.8626 109.609 77.8789 109.577 77.8956C106.159 79.4638 100.784 80.1697 105.852 70.7337Z" fill="#005BBB"/>
<path d="M101.34 62.6657L101.264 62.3318L100.895 62.416L101.015 62.7746L101.34 62.6657ZM105.852 70.7337L106.153 70.8957L105.852 70.7337ZM101.704 63.752L101.38 63.8609L101.471 64.1343L101.756 64.0905L101.704 63.752ZM105.523 70.1807L105.826 70.339H105.826L105.523 70.1807ZM105.254 70.6992L105.546 70.8779L105.553 70.867L105.558 70.8556L105.254 70.6992ZM109.34 79.5781L109.43 79.9084L109.544 79.8772L109.615 79.7824L109.34 79.5781ZM109.335 78.7997L109.659 78.6867L109.335 78.7997ZM109.682 77.8466L109.828 78.1566L109.55 77.5307L109.682 77.8466ZM101.416 62.9996C102.564 62.7374 103.715 62.5205 104.721 62.484C105.738 62.447 106.532 62.5984 107.029 62.9971C107.497 63.3728 107.783 64.0394 107.615 65.2564C107.446 66.4816 106.823 68.2007 105.55 70.5717L106.153 70.8957C107.44 68.4998 108.108 66.6955 108.294 65.3498C108.48 63.9957 108.181 63.044 107.457 62.4629C106.762 61.9047 105.756 61.7609 104.696 61.7995C103.623 61.8385 102.419 62.0678 101.264 62.3318L101.416 62.9996ZM102.029 63.6431L101.665 62.5568L101.015 62.7746L101.38 63.8609L102.029 63.6431ZM105.826 70.339C106.235 69.555 106.697 68.6677 107.033 67.8031C107.366 66.9468 107.595 66.0613 107.49 65.29C107.436 64.8966 107.295 64.527 107.033 64.2108C106.771 63.8953 106.405 63.6522 105.933 63.4855C105 63.1564 103.617 63.1115 101.652 63.4135L101.756 64.0905C103.687 63.7938 104.934 63.8594 105.705 64.1314C106.084 64.2652 106.337 64.4453 106.505 64.6481C106.673 64.8503 106.772 65.0944 106.811 65.3825C106.892 65.9744 106.718 66.7237 106.395 67.5552C106.075 68.3783 105.631 69.2317 105.219 70.0225L105.826 70.339ZM105.558 70.8556C105.644 70.6889 105.734 70.5166 105.826 70.339L105.219 70.0225C105.126 70.1997 105.036 70.3739 104.949 70.5428L105.558 70.8556ZM109.25 79.2477C108.32 79.5018 107.257 79.6703 106.28 79.6384C105.295 79.6062 104.448 79.3726 103.895 78.8757C103.361 78.3964 103.039 77.6148 103.218 76.3316C103.398 75.0352 104.088 73.2618 105.546 70.8779L104.962 70.5205C103.483 72.9382 102.739 74.8057 102.539 76.2372C102.338 77.6818 102.691 78.7151 103.437 79.3853C104.163 80.0379 105.201 80.2885 106.257 80.323C107.321 80.3577 108.455 80.1752 109.43 79.9084L109.25 79.2477ZM109.012 78.9126C109.061 79.053 109.092 79.1459 109.099 79.2279C109.106 79.294 109.095 79.3333 109.065 79.3737L109.615 79.7824C109.922 79.3691 109.737 78.9108 109.659 78.6867L109.012 78.9126ZM109.419 77.5913C109.109 77.7517 108.925 77.981 108.894 78.2776C108.869 78.5224 108.961 78.7653 109.012 78.9126L109.659 78.6867C109.628 78.5994 109.605 78.5323 109.59 78.4702C109.575 78.4092 109.573 78.3718 109.576 78.3485C109.577 78.3307 109.582 78.3179 109.595 78.3015C109.61 78.2816 109.647 78.2447 109.734 78.1999L109.419 77.5913ZM109.537 77.5366C109.502 77.5526 109.468 77.5685 109.434 77.5844L109.719 78.2069C109.756 78.1902 109.792 78.1735 109.828 78.1566L109.537 77.5366ZM109.734 78.1999C109.757 78.1878 109.784 78.1753 109.814 78.1625L109.55 77.5307C109.504 77.5499 109.461 77.57 109.419 77.5913L109.734 78.1999ZM105.55 70.5717C104.276 72.9441 103.639 74.7131 103.475 76.0114C103.312 77.316 103.623 78.2159 104.334 78.7205C105.014 79.2027 105.96 79.247 106.892 79.1036C107.839 78.958 108.847 78.6074 109.719 78.2069L109.434 77.5844C108.598 77.9679 107.653 78.2936 106.788 78.4266C105.91 78.5617 105.188 78.4867 104.731 78.1619C104.304 77.8595 104.008 77.2646 104.155 76.0968C104.303 74.9225 104.894 73.2413 106.153 70.8957L105.55 70.5717Z" fill="#090909" mask="url(#path-4-outside-1_747_3762)"/>
<ellipse cx="78.3143" cy="36.7697" rx="1.23186" ry="1.93578" transform="rotate(-5.63119 78.3143 36.7697)" fill="#090909"/>
<ellipse cx="1.23186" cy="1.93578" rx="1.23186" ry="1.93578" transform="matrix(-0.910908 0.412609 0.412609 0.910908 91.1465 30.7976)" fill="#090909"/>
<path fill-rule="evenodd" clip-rule="evenodd" d="M82.8848 28.3111C80.541 28.9695 76.2874 31.2267 78.0241 34.9881C79.1085 37.337 78.3906 39.1377 77.7034 40.8616C77.0149 42.5885 76.3572 44.2383 77.5724 46.285C78.173 47.2965 78.81 47.9718 79.4046 48.6023C80.743 50.0213 81.8672 51.2132 81.8801 55.4985C81.8951 60.45 85.5349 73.5579 87.3529 79.4928L95.9786 77.1816L96.0014 77.2666L104.628 74.9551C103.235 68.9062 99.8332 55.7346 97.3705 51.439C95.6352 48.4123 96.2146 46.5165 96.7922 44.6265C97.2393 43.1636 97.6854 41.7042 97.0561 39.7266C96.3835 37.6127 95.0048 36.857 93.6773 36.1292C92.1582 35.2965 90.706 34.5004 90.4547 31.7484C90.078 27.6231 85.267 27.7946 82.9076 28.3961L82.8848 28.3111Z" fill="white"/>
<ellipse cx="2.9771" cy="4.19342" rx="2.9771" ry="4.19342" transform="matrix(-0.761754 0.647867 0.647867 0.761754 80.2598 40.0862)" fill="url(#paint0_radial_747_3762)"/>
<ellipse cx="2.9771" cy="4.19342" rx="2.9771" ry="4.19342" transform="matrix(-0.952397 -0.30486 -0.30486 0.952397 98.1992 39.1619)" fill="url(#paint1_radial_747_3762)"/>
<path d="M102.082 64.917C96.5668 69.2888 88.1244 70.5068 84.6494 69.9858L85.239 72.0233C93.2333 73.7297 100.128 69.3075 102.664 66.9377L102.082 64.917Z" fill="#005BBB"/>
<path d="M102.665 66.8691C96.1475 72.4064 88.7009 72.4746 85.2159 71.9941L85.7118 73.5818C93.7391 75.195 100.758 71.5285 103.247 69.1295L102.665 66.8691Z" fill="#FFD500"/>
<ellipse opacity="0.2" cx="90.5846" cy="32.468" rx="0.552229" ry="0.867789" transform="rotate(9.05007 90.5846 32.468)" fill="white"/>
<ellipse opacity="0.2" cx="78.0495" cy="36.03" rx="0.552229" ry="0.867789" transform="rotate(9.05007 78.0495 36.03)" fill="white"/>
<path d="M95.0306 73.4202C79.9334 76.3592 83.1704 96.8204 86.676 106.684C104.333 112.46 137.283 118.34 127.83 95.6565C118.376 72.9727 105.95 70.3288 100.919 71.8424L95.0306 73.4202Z" fill="white"/>
<path d="M80.6908 39.3297C78.8338 33.4871 84.2438 30.979 84.2393 31.0586C90.3546 31.0586 91.2079 36.2949 91.2079 37.1038C91.2079 39.3297 95.1599 40.2384 94.706 42.6796C94.252 45.1209 95.4738 49.6248 95.4665 52.9972C95.462 55.0639 94.8637 55.9783 94.3555 56.3065C94.5046 56.268 94.4445 56.2923 94.2977 56.3416C94.164 56.4175 94.0386 56.4532 93.9346 56.4593C94.0698 56.4164 94.2021 56.3737 94.2977 56.3416C94.3168 56.3307 94.3361 56.3191 94.3555 56.3065C94.1595 56.3571 93.6021 56.5161 92.4048 56.8692C89.0279 57.8652 87.6198 53.46 83.3212 49.1462C79.0225 44.8324 83.0121 46.6329 80.6908 39.3297Z" fill="#FF6B0A"/>
<path d="M91.8239 54.7022C89.0404 55.193 86.5445 49.391 85.6444 46.4287C87.2173 45.6126 90.7026 44.126 92.0613 44.7093C93.7597 45.4385 95.3033 54.0887 91.8239 54.7022Z" fill="#090909"/>
<path d="M92.1728 53.7892C94.0128 53.0411 92.2955 49.0346 91.2069 47.1248L87.5098 48.1155C88.2974 50.3184 90.3327 54.5373 92.1728 53.7892Z" fill="#956C7C"/>
<path d="M91.561 52.354C91.8787 51.9677 90.1995 47.9977 89.3202 46.061L88.5312 46.3655C89.4088 48.5226 91.2433 52.7403 91.561 52.354Z" fill="#86616F"/>
<path d="M83.9246 44.43C84.7128 40.0285 83.0612 38.1481 82.1369 37.7582C83.9815 33.2193 87.8633 34.5385 89.5737 35.7655C88.4312 40.1708 89.2262 36.6784 92.2113 42.2096C94.5994 46.6345 91.9106 49.0766 90.2677 49.7446C87.8249 49.807 83.1364 48.8315 83.9246 44.43Z" fill="#EB6005"/>
<path d="M92.9719 44.1196C87.0353 39.3702 84.9825 44.56 84.6982 47.7485C85.4137 48.8321 87.5511 50.7463 90.3771 49.734C93.203 48.7217 93.2844 45.5693 92.9719 44.1196Z" fill="#EFE5D5"/>
<path d="M87.9156 44.6756C87.7329 44.1847 87.3128 43.2988 87.0936 43.6824C86.8744 44.066 87.5502 44.5043 87.9156 44.6756Z" fill="#DACAB0"/>
<path d="M88.8738 44.4209C88.7067 43.9245 88.4753 42.9718 88.8871 43.1318C89.2989 43.2918 89.0498 44.0579 88.8738 44.4209Z" fill="#DACAB0"/>
<path d="M85.1214 23.9434L86.6626 28.156C84.9091 31.0602 80.3152 31.3982 78.2374 31.2041L76.7305 26.8888L85.1214 23.9434Z" fill="#3D3A00"/>
<path d="M86.6635 28.1562C86.7434 30.6336 85.0606 34.5128 78.2383 31.1701L86.6635 28.1562Z" fill="#3D3A00"/>
<ellipse cx="80.9374" cy="25.4141" rx="4.4539" ry="0.767743" transform="rotate(-19.0312 80.9374 25.4141)" fill="#3D3A00"/>
<path d="M81.0739 26.1282C81.0979 26.1321 81.1177 26.1343 81.1363 26.1394C81.291 26.1772 81.4048 26.2492 81.4912 26.3825C81.5278 26.439 81.5583 26.5005 81.5909 26.5587C81.6196 26.6103 81.6479 26.6609 81.6776 26.7121C81.6854 26.7253 81.686 26.7322 81.6708 26.7411C81.6382 26.7586 81.6159 26.7871 81.6158 26.8262C81.615 26.8608 81.6318 26.8868 81.6598 26.9031C81.6883 26.9205 81.7195 26.919 81.7498 26.9072C81.7648 26.9008 81.7723 26.8905 81.7744 26.873C81.7927 26.7397 81.7817 26.6095 81.7454 26.4807C81.715 26.3742 81.6645 26.2763 81.6185 26.1777C81.5926 26.1214 81.5682 26.0632 81.5402 26.0077C81.5231 25.9724 81.5098 25.9379 81.5041 25.8989C81.4984 25.86 81.5009 25.821 81.5137 25.7812C81.551 25.7972 81.5814 25.822 81.6031 25.8541C81.6229 25.8847 81.6396 25.9189 81.6545 25.9516C81.6706 25.9873 81.6818 26.0252 81.6955 26.0607C81.7316 26.1553 81.7667 26.2503 81.8058 26.3436C81.8719 26.4987 81.9718 26.6275 82.1065 26.7272C82.1241 26.7409 82.1401 26.74 82.1583 26.7298C82.2045 26.7053 82.2249 26.6528 82.206 26.6076C82.1883 26.5655 82.1354 26.5432 82.0876 26.5613C82.0703 26.5675 82.0667 26.562 82.0629 26.547C82.0412 26.47 82.018 26.3923 81.9954 26.3156C81.9705 26.2281 81.9406 26.1427 81.9417 26.0499C81.9434 25.9273 81.9802 25.8298 82.0494 25.728C82.0547 25.721 82.06 25.714 82.0675 25.7037C82.0713 25.7127 82.0738 25.7187 82.0763 25.7247C82.239 26.113 82.3949 26.4853 82.5575 26.8735C82.5668 26.8956 82.5668 26.8956 82.5458 26.9046C82.4669 26.9384 82.3871 26.9726 82.3082 27.0064C82.2943 27.0124 82.2899 27.019 82.2928 27.0343C82.3144 27.1505 82.2975 27.2619 82.2384 27.3653C82.2263 27.387 82.2179 27.4119 82.2077 27.4353C82.1409 27.4023 82.0629 27.3932 81.9993 27.3482C81.9474 27.3113 81.9001 27.2688 81.8648 27.2153C81.8563 27.2036 81.8487 27.2021 81.8367 27.2072C81.7558 27.2419 81.676 27.2761 81.5951 27.3107C81.5811 27.3167 81.5739 27.3163 81.5672 27.3002C81.4037 26.9099 81.2465 26.5347 81.083 26.1444C81.0802 26.1433 81.0785 26.1393 81.0739 26.1282ZM81.2365 26.2692C81.235 26.271 81.232 26.2723 81.2304 26.2742C81.2333 26.2812 81.2363 26.2882 81.2392 26.2952C81.3178 26.4829 81.3901 26.6554 81.4687 26.8431C81.4817 26.8742 81.4817 26.8742 81.5136 26.8605C81.5256 26.8553 81.5304 26.8498 81.5283 26.8364C81.5247 26.7942 81.5369 26.7558 81.5623 26.7237C81.5729 26.7096 81.5711 26.6998 81.5632 26.6866C81.5253 26.6212 81.4859 26.5552 81.4509 26.4886C81.4136 26.4193 81.375 26.372 81.3126 26.3242C81.2877 26.3041 81.262 26.2878 81.2365 26.2692ZM82.0603 25.9198C82.0583 25.9206 82.0569 25.9201 82.0549 25.9209C82.0523 25.9315 82.0496 25.9421 82.048 25.9523C82.0343 26.0291 82.0221 26.09 82.042 26.1655C82.0678 26.2609 82.0956 26.3555 82.1225 26.4505C82.1255 26.4634 82.1319 26.4701 82.1468 26.472C82.1877 26.477 82.223 26.4938 82.2516 26.5254C82.2647 26.5399 82.2774 26.5392 82.3012 26.523C82.3159 26.5132 82.3049 26.5037 82.3011 26.4947C82.2213 26.304 82.1477 26.1285 82.0674 25.9368C82.0659 25.9304 82.0634 25.9244 82.0603 25.9198ZM81.7703 26.9954C81.7649 26.9966 81.7585 26.9981 81.7507 26.9991C81.6819 27.012 81.62 27.0019 81.5727 26.9452C81.5659 26.9375 81.5602 26.9352 81.5517 26.94C81.5447 26.943 81.5377 26.946 81.5307 26.949C81.5207 26.9533 81.5184 26.959 81.5226 26.969C81.5541 27.0443 81.5861 27.1205 81.6186 27.1954C81.6203 27.1994 81.632 27.205 81.636 27.2033C81.6904 27.1812 81.7453 27.1577 81.7987 27.1336C81.8027 27.1318 81.8078 27.1214 81.8071 27.117C81.7951 27.0771 81.7831 27.0373 81.7703 26.9954ZM82.1975 26.8124C82.2183 26.8508 82.2393 26.8868 82.2597 26.9242C82.2653 26.9348 82.2733 26.9314 82.2813 26.928C82.3322 26.9062 82.3817 26.8838 82.433 26.863C82.449 26.8561 82.4514 26.848 82.4441 26.8334C82.415 26.7666 82.3878 26.6989 82.3593 26.6307C82.3462 26.5996 82.3462 26.5996 82.3153 26.6128C82.3063 26.6167 82.2983 26.6201 82.2999 26.6324C82.3068 26.6993 82.2773 26.7498 82.2285 26.7908C82.2178 26.799 82.2063 26.8051 82.1975 26.8124ZM81.8674 26.6201C81.8718 26.7094 81.8754 26.7966 81.8619 26.8852C81.9017 26.893 81.939 26.9007 81.9769 26.9069C81.9822 26.9082 81.9913 26.9019 81.9951 26.8968C82.0143 26.8696 82.0307 26.8413 82.0499 26.8141C82.0558 26.8057 82.0557 26.7998 82.0469 26.7929C81.9844 26.7475 81.9317 26.692 81.8811 26.6332C81.876 26.6295 81.8715 26.6243 81.8674 26.6201ZM81.9433 27.1639C81.9612 27.2178 82.0598 27.2986 82.0982 27.2976C82.0988 27.2961 82.0993 27.2947 82.0993 27.2947C82.0775 27.2425 82.0566 27.1899 82.0342 27.1392C82.0325 27.1352 82.023 27.1321 82.0186 27.1328C81.9928 27.1415 81.9683 27.1532 81.9433 27.1639ZM82.1829 27.2636C82.2153 27.2202 82.2202 27.0914 82.1964 27.0543C82.1745 27.0637 82.1505 27.074 82.1286 27.0834C82.1156 27.0889 82.1137 27.0957 82.1187 27.1077C82.1364 27.1498 82.154 27.192 82.1717 27.2341C82.1745 27.2436 82.1783 27.2526 82.1829 27.2636ZM81.9451 27.0697C81.958 27.0641 81.9724 27.0591 81.9846 27.0516C81.9886 27.0499 81.9932 27.0384 81.9909 27.0358C81.9664 26.9943 81.9225 26.9681 81.8764 26.976C81.8666 26.9779 81.8624 26.982 81.8642 26.9919C81.8716 27.0207 81.8799 27.0491 81.8877 27.0789C81.8909 27.0893 81.8986 27.0908 81.9075 27.0869C81.9191 27.0808 81.9321 27.0752 81.9451 27.0697ZM82.1287 26.991C82.1407 26.9859 82.1517 26.9812 82.1637 26.976C82.1761 26.9719 82.1809 26.9639 82.1735 26.9517C82.16 26.9279 82.1465 26.9041 82.132 26.8807C82.1249 26.8695 82.1177 26.8691 82.1074 26.8782C82.0741 26.9055 82.0574 26.9612 82.0728 27.0008C82.0745 27.0048 82.0844 27.0088 82.0888 27.0081C82.1032 27.0031 82.1157 26.9966 82.1287 26.991Z" fill="#FFD500"/>
<path d="M85.1214 23.9434L86.6626 28.156C84.9091 31.0602 80.3152 31.3982 78.2374 31.2041L76.7305 26.8888C76.7305 26.8888 77.4552 26.7979 77.8949 26.649C78.4219 26.4706 79.1621 25.9983 79.1621 25.9983L82.7925 28.9437V24.5598C82.7925 24.5598 83.5824 24.6905 84.0597 24.5598C84.5221 24.4332 85.1214 23.9434 85.1214 23.9434Z" fill="#4B4800"/>
<path d="M101.945 64.5739C106.464 64.0572 113.877 65.4652 107.531 74.383C101.232 83.2351 100.013 88.8012 103.394 87.7061C103.419 87.697 103.444 87.6885 103.47 87.6806C103.445 87.6895 103.419 87.698 103.394 87.7061C102.454 88.0573 102.884 89.3249 102.399 89.8391C98.6345 90.4376 98.5643 85.3783 106.972 74.2794C108.995 71.3285 110.347 65.5826 102.369 65.8921L101.945 64.5739Z" fill="#FFD500"/>
<path d="M101.34 62.6662C105.947 61.614 110.972 61.2005 105.852 70.7342C100.785 80.1702 106.16 79.4643 109.577 77.8962C109.61 77.8794 109.645 77.8631 109.683 77.8471C109.648 77.8636 109.613 77.8799 109.577 77.8962C108.736 78.3308 109.755 79.0213 109.34 79.5786C105.531 80.6203 99.3809 80.303 105.254 70.6997C106.869 67.5542 109.935 62.4877 101.705 63.7525L101.34 62.6662Z" fill="#005BBB"/>
<path d="M73.8196 54.0874L74.1053 54.0904L73.9681 54.3409C73.6291 54.9597 73.2975 55.9614 73.3959 56.9494C73.4928 57.9227 74.0067 58.895 75.388 59.491C76.2476 59.862 77.4635 59.8924 78.8826 59.8239C79.3411 59.8017 79.8202 59.7693 80.3117 59.736C81.3237 59.6676 82.3885 59.5955 83.4343 59.6023C84.9924 59.6124 86.541 59.7962 87.8726 60.4363C89.211 61.0796 90.3185 62.1785 90.9986 63.9926C92.3392 67.5689 92.263 70.6036 91.2486 72.7615C90.2316 74.9246 88.2787 76.1882 85.9229 76.2151C84.9953 76.2256 83.0976 76.3768 80.6267 76.5735C80.0689 76.618 79.482 76.6647 78.8704 76.7127C75.5549 76.9728 71.5263 77.2681 67.5351 77.4214C63.5451 77.5747 59.5864 77.5864 56.4124 77.2777C54.8257 77.1235 53.4286 76.8886 52.3191 76.5485C51.2159 76.2105 50.3681 75.76 49.9149 75.154C48.2144 72.8805 47.3563 70.1376 47.2965 67.6924C47.2368 65.2547 47.9719 63.0719 49.5107 61.97C49.8279 61.7429 50.3334 61.5279 50.963 61.3238C51.5967 61.1183 52.3711 60.9192 53.237 60.7294C54.9692 60.3498 57.0778 60.0049 59.1803 59.7194C61.2832 59.4338 63.3827 59.2071 65.0974 59.0642C66.6989 58.9307 67.9785 58.8689 68.6085 58.9036C69.0195 58.0869 69.7347 56.9199 70.6143 55.9411C71.5238 54.9291 72.6473 54.0753 73.8196 54.0874Z" fill="white" stroke="#090909" stroke-width="0.342487"/>
<path d="M51.4119 70.7422V66.1392H55.6073V70.7422H54.5486V66.7639L54.7919 67.0072H52.2273L52.4706 66.7639V70.7422H51.4119ZM58.7539 70.7948C58.4558 70.7948 58.195 70.729 57.9714 70.5975C57.7478 70.466 57.5725 70.2665 57.4453 69.9991C57.3226 69.7273 57.2612 69.3854 57.2612 68.9733C57.2612 68.5568 57.3204 68.2149 57.4388 67.9475C57.5571 67.6801 57.7281 67.4806 57.9517 67.3491C58.1752 67.2176 58.4427 67.1518 58.7539 67.1518C59.0871 67.1518 59.3852 67.2285 59.6482 67.382C59.9156 67.531 60.126 67.7414 60.2795 68.0132C60.4373 68.285 60.5162 68.6051 60.5162 68.9733C60.5162 69.3459 60.4373 69.6681 60.2795 69.9399C60.126 70.2117 59.9156 70.4222 59.6482 70.5712C59.3852 70.7203 59.0871 70.7948 58.7539 70.7948ZM56.6628 72.0179V67.2044H57.6426V67.9278L57.6229 68.9799L57.6886 70.0254V72.0179H56.6628ZM58.5764 69.9531C58.7473 69.9531 58.8986 69.9136 59.0301 69.8347C59.166 69.7558 59.2734 69.644 59.3523 69.4994C59.4356 69.3503 59.4772 69.175 59.4772 68.9733C59.4772 68.7673 59.4356 68.5919 59.3523 68.4472C59.2734 68.3026 59.166 68.1908 59.0301 68.1119C58.8986 68.033 58.7473 67.9935 58.5764 67.9935C58.4054 67.9935 58.252 68.033 58.1161 68.1119C57.9802 68.1908 57.8728 68.3026 57.7938 68.4472C57.7149 68.5919 57.6755 68.7673 57.6755 68.9733C57.6755 69.175 57.7149 69.3503 57.7938 69.4994C57.8728 69.644 57.9802 69.7558 58.1161 69.8347C58.252 69.9136 58.4054 69.9531 58.5764 69.9531ZM61.2352 70.7422V67.2044H62.2544V69.3087L63.9773 67.2044H64.9176V70.7422H63.8984V68.6379L62.1821 70.7422H61.2352ZM65.9037 70.7422V67.2044H67.712C68.1548 67.2044 68.5011 67.2855 68.751 67.4477C69.0009 67.6056 69.1258 67.8291 69.1258 68.1185C69.1258 68.4078 69.0075 68.6358 68.7707 68.8023C68.5384 68.9645 68.2293 69.0456 67.8436 69.0456L67.9488 68.8089C68.3784 68.8089 68.6984 68.8878 68.9088 69.0456C69.1236 69.2035 69.231 69.4336 69.231 69.7361C69.231 70.0473 69.1127 70.2928 68.876 70.4726C68.6392 70.6523 68.2776 70.7422 67.791 70.7422H65.9037ZM66.844 70.0452H67.7055C67.894 70.0452 68.0343 70.0145 68.1263 69.9531C68.2228 69.8873 68.271 69.7887 68.271 69.6572C68.271 69.5213 68.2271 69.4227 68.1395 69.3613C68.0518 69.2955 67.9137 69.2626 67.7252 69.2626H66.844V70.0452ZM66.844 68.6577H67.62C67.7997 68.6577 67.9334 68.6248 68.0211 68.559C68.1132 68.4933 68.1592 68.399 68.1592 68.2763C68.1592 68.1491 68.1132 68.0549 68.0211 67.9935C67.9334 67.9321 67.7997 67.9015 67.62 67.9015H66.844V68.6577ZM69.9877 70.7422V67.2044H71.0135V70.7422H69.9877ZM70.5006 66.7112C70.3121 66.7112 70.1587 66.6564 70.0403 66.5469C69.922 66.4373 69.8628 66.3014 69.8628 66.1392C69.8628 65.977 69.922 65.8411 70.0403 65.7315C70.1587 65.6219 70.3121 65.5671 70.5006 65.5671C70.6891 65.5671 70.8426 65.6197 70.9609 65.7249C71.0793 65.8257 71.1385 65.9572 71.1385 66.1194C71.1385 66.2904 71.0793 66.4329 70.9609 66.5469C70.8469 66.6564 70.6935 66.7112 70.5006 66.7112ZM72.7541 70.7422V67.8094L72.9842 68.0461H71.5573V67.2044H74.9701V68.0461H73.5431L73.7733 67.8094V70.7422H72.7541ZM76.0162 72.0705C75.8321 72.0705 75.6501 72.042 75.4704 71.985C75.2907 71.928 75.1438 71.8491 75.0298 71.7483L75.4047 71.0184C75.4836 71.0885 75.5734 71.1433 75.6743 71.1828C75.7795 71.2222 75.8825 71.2419 75.9833 71.2419C76.128 71.2419 76.242 71.2069 76.3253 71.1367C76.4129 71.071 76.4918 70.9592 76.562 70.8014L76.7461 70.3674L76.825 70.2556L78.0941 67.2044H79.0805L77.4826 70.9592C77.3686 71.2441 77.2371 71.4677 77.088 71.6299C76.9434 71.7921 76.7812 71.9061 76.6014 71.9719C76.4261 72.0376 76.231 72.0705 76.0162 72.0705ZM76.6212 70.8803L75.043 67.2044H76.1017L77.3248 70.1635L76.6212 70.8803ZM78.8778 70.7356L78.9304 69.8939C78.9567 69.8983 78.983 69.9027 79.0093 69.9071C79.0356 69.9071 79.0597 69.9071 79.0816 69.9071C79.2044 69.9071 79.3008 69.872 79.371 69.8019C79.4411 69.7317 79.4937 69.6375 79.5288 69.5191C79.5639 69.3963 79.588 69.2583 79.6011 69.1048C79.6187 68.9514 79.6318 68.7914 79.6406 68.6248L79.6932 67.2044H82.718V70.7422H81.6922V67.7962L81.9224 68.0461H80.3705L80.5875 67.7831L80.5414 68.6708C80.5283 68.9865 80.502 69.2758 80.4625 69.5388C80.4275 69.8019 80.3683 70.0298 80.285 70.2227C80.2017 70.4112 80.0899 70.5581 79.9496 70.6633C79.8093 70.7641 79.6296 70.8145 79.4104 70.8145C79.3315 70.8145 79.2482 70.8079 79.1605 70.7948C79.0729 70.7816 78.9786 70.7619 78.8778 70.7356ZM83.6979 70.7422V67.2044H84.7237V70.7422H83.6979ZM84.2108 66.7112C84.0223 66.7112 83.8689 66.6564 83.7505 66.5469C83.6322 66.4373 83.573 66.3014 83.573 66.1392C83.573 65.977 83.6322 65.8411 83.7505 65.7315C83.8689 65.6219 84.0223 65.5671 84.2108 65.5671C84.3993 65.5671 84.5528 65.6197 84.6711 65.7249C84.7895 65.8257 84.8487 65.9572 84.8487 66.1194C84.8487 66.2904 84.7895 66.4329 84.6711 66.5469C84.5571 66.6564 84.4037 66.7112 84.2108 66.7112Z" fill="#090909"/>
</g>
<defs>
<radialGradient id="paint0_radial_747_3762" cx="0" cy="0" r="1" gradientUnits="userSpaceOnUse" gradientTransform="translate(2.9771 4.19342) rotate(90) scale(4.19342 2.9771)">
<stop stop-color="#FFBBBB"/>
<stop offset="1" stop-color="#FFBBBB" stop-opacity="0"/>
</radialGradient>
<radialGradient id="paint1_radial_747_3762" cx="0" cy="0" r="1" gradientUnits="userSpaceOnUse" gradientTransform="translate(2.9771 4.19342) rotate(90) scale(4.19342 2.9771)">
<stop stop-color="#FFBBBB"/>
<stop offset="1" stop-color="#FFBBBB" stop-opacity="0"/>
</radialGradient>
<clipPath id="clip0_747_3762">
<rect width="74.4253" height="74.2028" fill="white" transform="translate(43.5293 17.4136)"/>
</clipPath>
</defs>
</svg>
