<svg width="40" height="40" viewBox="0 0 40 40" fill="none" xmlns="http://www.w3.org/2000/svg">
<path d="M19.9987 3.3335C10.7948 3.3335 3.33203 10.7963 3.33203 20.0002C3.33203 29.204 10.7948 36.6668 19.9987 36.6668C29.2026 36.6668 36.6654 29.204 36.6654 20.0002C36.6654 10.7963 29.2026 3.3335 19.9987 3.3335ZM28.0084 15.8967C28.0195 16.0716 28.0195 16.2539 28.0195 16.4325C28.0195 21.8938 23.8603 28.1847 16.2599 28.1847C13.9161 28.1847 11.7435 27.5039 9.91313 26.332C10.248 26.3692 10.5679 26.3841 10.9102 26.3841C12.8447 26.3841 14.623 25.7293 16.0404 24.6207C14.2249 24.5835 12.6996 23.393 12.1788 21.7561C12.8149 21.8491 13.3878 21.8491 14.0426 21.6817C13.1078 21.4918 12.2676 20.9841 11.6647 20.2449C11.0618 19.5057 10.7334 18.5805 10.7353 17.6267V17.5746C11.2822 17.8833 11.9258 18.0731 12.5991 18.0991C12.0331 17.7219 11.5689 17.2108 11.2476 16.6111C10.9264 16.0115 10.7581 15.3419 10.7576 14.6616C10.7576 13.8915 10.9585 13.1884 11.3194 12.5783C12.357 13.8556 13.6517 14.9002 15.1195 15.6444C16.5872 16.3885 18.1952 16.8155 19.8387 16.8975C19.2547 14.0887 21.3529 11.8156 23.8752 11.8156C25.0657 11.8156 26.1371 12.3142 26.8923 13.1177C27.8261 12.9429 28.7189 12.5932 29.5151 12.1244C29.2063 13.0805 28.559 13.8878 27.6996 14.3975C28.5329 14.3082 29.3365 14.0775 30.0805 13.7539C29.5188 14.5798 28.8157 15.3127 28.0084 15.8967Z" fill="#010101"/>
</svg>
