<svg width="40" height="40" viewBox="0 0 40 40" fill="none" xmlns="http://www.w3.org/2000/svg">
<path d="M22.7817 19.7102L18.8824 17.8908C18.5421 17.7328 18.2626 17.9099 18.2626 18.2866V21.7137C18.2626 22.0904 18.5421 22.2675 18.8824 22.1095L22.7799 20.2901C23.122 20.1304 23.122 19.87 22.7817 19.7102ZM19.9987 3.3335C10.7938 3.3335 3.33203 10.7953 3.33203 20.0002C3.33203 29.205 10.7938 36.6668 19.9987 36.6668C29.2036 36.6668 36.6654 29.205 36.6654 20.0002C36.6654 10.7953 29.2036 3.3335 19.9987 3.3335ZM19.9987 26.771C11.4674 26.771 11.3181 26.0019 11.3181 20.0002C11.3181 13.9984 11.4674 13.2293 19.9987 13.2293C28.5299 13.2293 28.6793 13.9984 28.6793 20.0002C28.6793 26.0019 28.5299 26.771 19.9987 26.771Z" fill="#010101"/>
</svg>
